<?xml version="1.0" standalone="no"?>
<!DOCTYPE svg PUBLIC "-//W3C//DTD SVG 20010904//EN"
 "http://www.w3.org/TR/2001/REC-SVG-20010904/DTD/svg10.dtd">
<svg version="1.0" xmlns="http://www.w3.org/2000/svg"
 width="1000.000000pt" height="608.000000pt" viewBox="0 0 1000.000000 608.000000"
 preserveAspectRatio="xMidYMid meet">

<g transform="translate(0.000000,608.000000) scale(0.100000,-0.100000)"
fill="#000000" stroke="none">
<path d="M9580 5966 l0 -106 75 0 c74 0 75 0 75 26 0 45 -41 142 -66 159 -13
8 -38 18 -54 22 l-30 6 0 -107z"/>
<path d="M9410 5968 c-13 -46 -25 -89 -28 -95 -3 -10 15 -13 72 -13 l76 0 0
82 c0 59 -3 79 -11 71 -15 -15 -47 -5 -54 18 -13 39 -32 17 -55 -63z"/>
<path d="M785 6018 c4 -37 4 -38 18 -38 6 0 13 -11 13 -25 1 -16 -3 -25 -12
-25 -25 0 -28 -30 -6 -51 16 -14 36 -19 77 -19 l55 0 0 73 0 74 -52 12 c-29 6
-63 14 -74 17 -18 5 -21 2 -19 -18z"/>
<path d="M980 5926 l0 -66 75 0 75 0 0 50 c0 49 -1 49 -37 59 -21 5 -55 13
-75 17 l-38 6 0 -66z"/>
<path d="M445 5953 c-4 -10 -9 -35 -12 -55 l-5 -38 51 0 c48 0 51 2 51 25 0
16 -12 36 -32 55 -39 35 -43 36 -53 13z"/>
<path d="M1180 5906 l0 -46 75 0 75 0 0 29 c0 28 -3 30 -57 41 -32 6 -66 14
-75 16 -15 5 -18 -2 -18 -40z"/>
<path d="M1380 5884 c0 -23 2 -24 75 -24 41 0 75 4 75 9 0 5 -26 15 -57 21
-32 6 -66 12 -75 14 -13 3 -18 -2 -18 -20z"/>
<path d="M580 5870 c0 -5 12 -10 28 -9 24 0 25 1 7 9 -27 12 -35 12 -35 0z"/>
<path d="M456 5780 c-3 -22 -3 -58 0 -80 6 -37 9 -40 40 -40 l34 0 0 80 0 80
-34 0 c-31 0 -34 -3 -40 -40z"/>
<path d="M580 5740 l0 -80 75 0 74 0 -1 80 -1 80 -73 0 -74 0 0 -80z"/>
<path d="M816 5806 c3 -8 -4 -25 -15 -37 -15 -16 -21 -36 -21 -66 l0 -43 75 0
75 0 0 80 0 80 -60 0 c-48 0 -58 -3 -54 -14z"/>
<path d="M980 5740 l0 -80 75 0 75 0 0 80 0 80 -75 0 -75 0 0 -80z"/>
<path d="M1180 5740 l0 -80 75 0 75 0 0 80 0 80 -75 0 -75 0 0 -80z"/>
<path d="M1380 5740 l0 -80 75 0 75 0 0 80 0 80 -75 0 -75 0 0 -80z"/>
<path d="M1580 5740 l0 -80 75 0 75 0 0 80 0 80 -75 0 -75 0 0 -80z"/>
<path d="M1780 5740 l0 -80 75 0 75 0 0 74 0 73 -37 7 c-21 3 -55 6 -75 6
l-38 0 0 -80z"/>
<path d="M9380 5740 l0 -80 75 0 75 0 0 80 0 80 -75 0 -75 0 0 -80z"/>
<path d="M9580 5740 l0 -80 75 0 75 0 0 80 0 80 -75 0 -75 0 0 -80z"/>
<path d="M1980 5731 l0 -71 75 0 75 0 0 59 0 59 -57 6 c-32 4 -66 9 -75 12
-16 5 -18 -3 -18 -65z"/>
<path d="M2180 5716 l0 -56 75 0 75 0 0 44 0 44 -57 6 c-32 4 -66 9 -75 12
-16 5 -18 -2 -18 -50z"/>
<path d="M2380 5701 l0 -41 75 0 75 0 0 29 c0 28 -3 30 -47 36 -27 3 -60 9
-75 11 -27 5 -28 4 -28 -35z"/>
<path d="M9780 5703 l0 -43 50 0 c28 0 50 5 50 10 0 6 -4 10 -10 10 -5 0 -10
8 -10 18 0 12 -9 17 -31 18 -17 1 -35 7 -40 15 -6 9 -9 0 -9 -28z"/>
<path d="M2580 5685 c0 -24 2 -25 75 -25 66 0 75 2 75 19 0 15 -10 19 -52 25
-90 10 -98 9 -98 -19z"/>
<path d="M5210 5686 c0 -22 4 -26 30 -26 26 0 28 2 21 23 -4 12 -18 23 -30 25
-17 3 -21 -2 -21 -22z"/>
<path d="M2780 5676 c0 -13 12 -16 75 -16 43 0 75 4 75 10 0 6 -13 10 -29 10
-15 0 -49 3 -75 6 -38 6 -46 4 -46 -10z"/>
<path d="M2993 5663 c9 -2 25 -2 35 0 9 3 1 5 -18 5 -19 0 -27 -2 -17 -5z"/>
<path d="M472 5608 c-23 -12 -26 -45 -4 -40 15 3 16 -14 2 -23 -5 -3 -10 -13
-10 -22 0 -9 -7 -21 -17 -28 -25 -19 -6 -35 43 -35 l44 0 0 80 c0 87 -5 93
-58 68z"/>
<path d="M580 5540 l0 -80 75 0 75 0 0 80 0 80 -75 0 -75 0 0 -80z"/>
<path d="M780 5540 l0 -80 75 0 75 0 0 80 0 80 -75 0 -75 0 0 -80z"/>
<path d="M980 5540 l0 -80 75 0 75 0 0 80 0 80 -75 0 -75 0 0 -80z"/>
<path d="M1180 5540 l0 -80 75 0 75 0 0 80 0 80 -75 0 -75 0 0 -80z"/>
<path d="M1380 5540 l0 -80 75 0 75 0 0 80 0 80 -75 0 -75 0 0 -80z"/>
<path d="M1580 5540 l0 -80 75 0 75 0 0 80 0 80 -75 0 -75 0 0 -80z"/>
<path d="M1780 5540 l0 -80 75 0 75 0 0 80 0 80 -75 0 -75 0 0 -80z"/>
<path d="M1980 5540 l0 -80 75 0 75 0 0 80 0 80 -75 0 -75 0 0 -80z"/>
<path d="M2180 5540 l0 -80 75 0 75 0 0 80 0 80 -75 0 -75 0 0 -80z"/>
<path d="M2380 5540 l0 -80 75 0 75 0 0 80 0 80 -75 0 -75 0 0 -80z"/>
<path d="M2580 5540 l0 -80 75 0 75 0 0 80 0 80 -75 0 -75 0 0 -80z"/>
<path d="M2780 5540 l0 -80 75 0 75 0 0 80 0 80 -75 0 -75 0 0 -80z"/>
<path d="M2980 5540 l0 -80 75 0 75 0 0 80 0 80 -75 0 -75 0 0 -80z"/>
<path d="M3180 5540 l0 -80 75 0 75 0 0 80 0 80 -75 0 -75 0 0 -80z"/>
<path d="M3380 5540 l0 -80 75 0 75 0 0 80 0 80 -75 0 -75 0 0 -80z"/>
<path d="M3580 5540 l0 -80 75 0 75 0 0 80 0 80 -75 0 -75 0 0 -80z"/>
<path d="M3780 5541 l0 -81 75 0 75 0 0 75 0 75 -59 0 c-33 0 -66 3 -75 6 -14
5 -16 -5 -16 -75z"/>
<path d="M5013 5613 l-33 -4 0 -75 0 -74 75 0 75 0 0 80 0 80 -42 -2 c-24 0
-58 -3 -75 -5z"/>
<path d="M5180 5541 l0 -81 75 0 75 0 0 48 c0 39 -4 49 -22 57 -13 6 -23 19
-23 30 0 17 -8 20 -52 23 l-53 3 0 -80z"/>
<path d="M9380 5540 l0 -80 75 0 75 0 0 80 0 80 -75 0 -75 0 0 -80z"/>
<path d="M9580 5540 l0 -80 75 0 75 0 0 80 0 80 -75 0 -75 0 0 -80z"/>
<path d="M9780 5539 l0 -82 66 6 c36 2 68 8 72 11 3 4 8 38 10 77 l4 69 -76 0
-76 0 0 -81z"/>
<path d="M3980 5535 l0 -75 75 0 75 0 0 75 0 75 -75 0 -75 0 0 -75z"/>
<path d="M4653 5603 l-73 -4 0 -69 0 -70 75 0 75 0 0 75 c0 41 -1 74 -2 73 -2
-1 -36 -4 -75 -5z"/>
<path d="M4780 5535 l0 -75 75 0 75 0 0 75 0 75 -75 0 -75 0 0 -75z"/>
<path d="M4180 5530 l0 -70 75 0 75 0 0 70 0 70 -75 0 -75 0 0 -70z"/>
<path d="M4380 5530 l0 -70 75 0 75 0 0 70 0 70 -75 0 -75 0 0 -70z"/>
<path d="M9980 5569 c0 -11 5 -17 10 -14 6 3 10 13 10 21 0 8 -4 14 -10 14 -5
0 -10 -9 -10 -21z"/>
<path d="M6273 5522 c-49 -35 -64 -52 -44 -52 4 0 20 11 35 25 15 14 31 25 36
25 5 0 14 9 20 20 14 25 15 26 -47 -18z"/>
<path d="M5380 5505 l0 -45 75 0 75 0 0 45 c0 48 -16 59 -40 30 -15 -18 -60
-20 -60 -2 0 7 -11 14 -25 15 -23 2 -25 -1 -25 -43z"/>
<path d="M5580 5504 l0 -44 75 0 c68 0 75 2 75 20 0 13 -7 20 -20 20 -11 0
-20 -7 -20 -15 0 -22 -18 -18 -32 8 -7 12 -20 22 -28 22 -8 0 -14 5 -13 11 1
7 -7 14 -17 17 -18 5 -20 0 -20 -39z"/>
<path d="M5894 5475 c-18 -14 -18 -14 9 -15 15 0 27 4 27 9 0 18 -17 20 -36 6z"/>
<path d="M6023 5463 c9 -2 23 -2 30 0 6 3 -1 5 -18 5 -16 0 -22 -2 -12 -5z"/>
<path d="M426 5393 c-4 -16 -11 -44 -15 -63 -5 -19 -12 -43 -16 -52 -6 -16 0
-18 64 -18 l71 0 0 80 0 80 -49 0 c-45 0 -49 -2 -55 -27z"/>
<path d="M580 5340 l0 -80 75 0 75 0 0 80 0 80 -75 0 -75 0 0 -80z"/>
<path d="M780 5340 l0 -80 75 0 75 0 0 80 0 80 -75 0 -75 0 0 -80z"/>
<path d="M980 5340 l0 -80 75 0 75 0 0 80 0 80 -75 0 -75 0 0 -80z"/>
<path d="M1180 5340 l0 -80 75 0 75 0 0 80 0 80 -75 0 -75 0 0 -80z"/>
<path d="M1380 5340 l0 -80 75 0 75 0 0 80 0 80 -75 0 -75 0 0 -80z"/>
<path d="M1580 5340 l0 -80 75 0 75 0 0 80 0 80 -75 0 -75 0 0 -80z"/>
<path d="M1780 5340 l0 -80 75 0 75 0 0 80 0 80 -75 0 -75 0 0 -80z"/>
<path d="M1980 5340 l0 -80 75 0 75 0 0 80 0 80 -75 0 -75 0 0 -80z"/>
<path d="M2180 5340 l0 -80 75 0 75 0 0 80 0 80 -75 0 -75 0 0 -80z"/>
<path d="M2380 5340 l0 -80 75 0 75 0 0 80 0 80 -75 0 -75 0 0 -80z"/>
<path d="M2580 5340 l0 -80 75 0 75 0 0 80 0 80 -75 0 -75 0 0 -80z"/>
<path d="M2780 5340 l0 -80 75 0 75 0 0 80 0 80 -75 0 -75 0 0 -80z"/>
<path d="M2980 5340 l0 -80 75 0 75 0 0 80 0 80 -75 0 -75 0 0 -80z"/>
<path d="M3180 5340 l0 -80 75 0 75 0 0 80 0 80 -75 0 -75 0 0 -80z"/>
<path d="M3380 5340 l0 -80 75 0 75 0 0 80 0 80 -75 0 -75 0 0 -80z"/>
<path d="M3580 5340 l0 -80 75 0 75 0 0 80 0 80 -75 0 -75 0 0 -80z"/>
<path d="M3780 5340 l0 -80 75 0 75 0 0 80 0 80 -75 0 -75 0 0 -80z"/>
<path d="M3980 5340 l0 -80 75 0 75 0 0 80 0 80 -75 0 -75 0 0 -80z"/>
<path d="M4180 5340 l0 -80 75 0 75 0 0 80 0 80 -75 0 -75 0 0 -80z"/>
<path d="M4380 5340 l0 -80 75 0 75 0 0 80 0 80 -75 0 -75 0 0 -80z"/>
<path d="M4580 5340 l0 -80 75 0 75 0 0 80 0 80 -75 0 -75 0 0 -80z"/>
<path d="M4780 5340 l0 -80 75 0 75 0 0 80 0 80 -75 0 -75 0 0 -80z"/>
<path d="M4980 5340 l0 -80 75 0 75 0 0 80 0 80 -75 0 -75 0 0 -80z"/>
<path d="M5180 5340 l0 -80 75 0 75 0 0 80 0 80 -75 0 -75 0 0 -80z"/>
<path d="M5380 5340 l0 -80 75 0 75 0 0 80 0 80 -75 0 -75 0 0 -80z"/>
<path d="M5580 5340 l0 -80 75 0 75 0 0 80 0 80 -75 0 -75 0 0 -80z"/>
<path d="M5780 5340 l0 -80 45 0 c38 0 50 5 75 33 24 26 29 41 30 80 l0 47
-75 0 -75 0 0 -80z"/>
<path d="M5980 5395 l0 -25 43 21 c57 29 57 29 4 29 -44 0 -47 -2 -47 -25z"/>
<path d="M9254 5395 c-4 -16 -17 -28 -40 -35 -32 -11 -34 -14 -34 -56 l0 -44
75 0 75 0 0 80 0 80 -35 0 c-28 0 -36 -4 -41 -25z"/>
<path d="M9380 5340 l0 -80 75 0 75 0 0 80 0 80 -75 0 -75 0 0 -80z"/>
<path d="M9580 5340 l0 -81 63 3 62 3 0 55 c0 33 5 58 13 63 6 4 12 15 12 22
0 12 -16 15 -75 15 l-75 0 0 -80z"/>
<path d="M9780 5410 c0 -5 7 -7 15 -4 8 4 15 1 15 -5 0 -6 -4 -11 -10 -11 -5
0 -10 -4 -10 -10 0 -13 37 -13 45 0 4 6 1 17 -5 25 -14 17 -50 20 -50 5z"/>
<path d="M6387 5353 c-4 -3 -7 -18 -7 -32 l0 -26 23 26 c12 14 29 28 37 32 8
3 1 6 -16 6 -17 1 -34 -2 -37 -6z"/>
<path d="M9105 5325 c-5 -2 -36 -11 -67 -20 -37 -10 -58 -21 -58 -30 0 -12 16
-15 75 -15 l75 0 0 35 c0 34 -3 38 -25 30z"/>
<path d="M6305 5280 c-18 -19 -17 -20 3 -20 15 0 22 6 22 20 0 11 -2 20 -3 20
-2 0 -12 -9 -22 -20z"/>
<path d="M8908 5263 c7 -3 16 -2 19 1 4 3 -2 6 -13 5 -11 0 -14 -3 -6 -6z"/>
<path d="M380 5140 l0 -80 75 0 75 0 0 80 0 80 -75 0 -75 0 0 -80z"/>
<path d="M580 5140 l0 -80 75 0 75 0 0 80 0 80 -75 0 -75 0 0 -80z"/>
<path d="M780 5140 l0 -80 75 0 75 0 0 80 0 80 -75 0 -75 0 0 -80z"/>
<path d="M980 5140 l0 -80 75 0 75 0 0 80 0 80 -75 0 -75 0 0 -80z"/>
<path d="M1180 5140 l0 -80 75 0 75 0 0 80 0 80 -75 0 -75 0 0 -80z"/>
<path d="M1380 5140 l0 -80 75 0 75 0 0 80 0 80 -75 0 -75 0 0 -80z"/>
<path d="M1580 5140 l0 -80 75 0 75 0 0 80 0 80 -75 0 -75 0 0 -80z"/>
<path d="M1780 5140 l0 -80 75 0 75 0 0 80 0 80 -75 0 -75 0 0 -80z"/>
<path d="M1980 5140 l0 -80 75 0 75 0 0 80 0 80 -75 0 -75 0 0 -80z"/>
<path d="M2180 5140 l0 -80 75 0 75 0 0 80 0 80 -75 0 -75 0 0 -80z"/>
<path d="M2380 5140 l0 -80 75 0 75 0 0 80 0 80 -75 0 -75 0 0 -80z"/>
<path d="M2580 5140 l0 -80 75 0 75 0 0 80 0 80 -75 0 -75 0 0 -80z"/>
<path d="M2780 5140 l0 -80 75 0 75 0 0 80 0 80 -75 0 -75 0 0 -80z"/>
<path d="M2980 5140 l0 -80 75 0 75 0 0 80 0 80 -75 0 -75 0 0 -80z"/>
<path d="M3180 5140 l0 -80 75 0 75 0 0 80 0 80 -75 0 -75 0 0 -80z"/>
<path d="M3380 5140 l0 -80 75 0 75 0 0 80 0 80 -75 0 -75 0 0 -80z"/>
<path d="M3580 5140 l0 -80 75 0 75 0 0 80 0 80 -75 0 -75 0 0 -80z"/>
<path d="M3780 5140 l0 -80 75 0 75 0 0 80 0 80 -75 0 -75 0 0 -80z"/>
<path d="M3980 5140 l0 -80 75 0 75 0 0 80 0 80 -75 0 -75 0 0 -80z"/>
<path d="M4180 5140 l0 -80 75 0 75 0 0 80 0 80 -75 0 -75 0 0 -80z"/>
<path d="M4380 5140 l0 -80 75 0 75 0 0 80 0 80 -75 0 -75 0 0 -80z"/>
<path d="M4580 5140 l0 -80 75 0 75 0 0 80 0 80 -75 0 -75 0 0 -80z"/>
<path d="M4780 5140 l0 -80 75 0 75 0 0 80 0 80 -75 0 -75 0 0 -80z"/>
<path d="M4980 5140 l0 -80 75 0 75 0 0 80 0 80 -75 0 -75 0 0 -80z"/>
<path d="M5180 5140 l0 -80 75 0 75 0 0 80 0 80 -75 0 -75 0 0 -80z"/>
<path d="M5380 5140 l0 -80 75 0 75 0 0 80 0 80 -75 0 -75 0 0 -80z"/>
<path d="M5580 5140 l0 -80 75 0 75 0 0 80 0 80 -75 0 -75 0 0 -80z"/>
<path d="M5780 5195 c0 -31 7 -31 31 -3 24 27 24 28 -6 28 -20 0 -25 -5 -25
-25z"/>
<path d="M6230 5212 c0 -5 -11 -15 -25 -22 -22 -12 -25 -20 -25 -72 l0 -58 75
0 75 0 0 80 0 80 -50 0 c-27 0 -50 -4 -50 -8z"/>
<path d="M6380 5140 l0 -80 75 0 75 0 0 54 c0 48 -3 57 -31 80 -23 19 -42 26
-75 26 l-44 0 0 -80z"/>
<path d="M6780 5140 l0 -80 30 0 c19 0 33 7 40 20 8 14 21 20 45 20 35 0 35 0
35 44 0 73 -3 76 -81 76 l-69 0 0 -80z"/>
<path d="M7030 5205 c-9 -11 -16 -12 -25 -5 -6 5 -15 7 -18 3 -11 -10 -8 -131
3 -138 6 -4 10 5 10 19 0 29 13 32 50 11 30 -17 44 -19 35 -5 -3 6 2 10 13 10
10 0 21 3 25 6 8 9 -32 46 -43 39 -6 -4 -10 -2 -10 4 0 5 5 11 11 13 6 2 8 14
4 31 -8 30 -35 36 -55 12z"/>
<path d="M8780 5140 l0 -80 75 0 75 0 0 80 0 80 -75 0 -75 0 0 -80z"/>
<path d="M8980 5140 l0 -80 75 0 75 0 0 80 0 80 -75 0 -75 0 0 -80z"/>
<path d="M9180 5140 l0 -80 75 0 75 0 0 80 0 80 -75 0 -75 0 0 -80z"/>
<path d="M9380 5140 l0 -80 75 0 75 0 0 80 0 80 -75 0 -75 0 0 -80z"/>
<path d="M9582 5198 c4 -32 32 -34 52 -3 l16 25 -35 0 c-32 0 -36 -3 -33 -22z"/>
<path d="M8650 5163 c-23 -27 -48 -60 -56 -75 l-15 -28 76 0 75 0 0 75 c0 67
-2 75 -19 75 -11 0 -38 -21 -61 -47z"/>
<path d="M6699 5177 c-27 -27 -75 -42 -84 -27 -3 5 -12 7 -20 3 -10 -3 -15
-20 -15 -49 l0 -44 75 0 75 0 0 70 c0 39 -2 70 -4 70 -2 0 -14 -11 -27 -23z"/>
<path d="M5910 5160 c-8 -6 -41 -22 -72 -36 -41 -18 -58 -32 -58 -45 0 -17 8
-19 75 -19 l75 0 0 55 c0 30 -1 55 -2 54 -2 0 -10 -4 -18 -9z"/>
<path d="M6108 5147 c-22 -32 -92 -55 -113 -37 -13 11 -15 8 -15 -19 l0 -31
75 0 75 0 0 55 c0 30 -1 55 -2 55 -2 0 -10 -11 -20 -23z"/>
<path d="M7180 5126 c0 -9 5 -16 10 -16 6 0 10 4 10 9 0 6 -4 13 -10 16 -5 3
-10 -1 -10 -9z"/>
<path d="M281 4953 c-12 -38 -25 -74 -28 -80 -3 -9 7 -13 36 -13 l41 0 0 80
c0 102 -17 106 -49 13z"/>
<path d="M380 4940 l0 -80 75 0 75 0 0 80 0 80 -75 0 -75 0 0 -80z"/>
<path d="M580 4940 l0 -80 75 0 75 0 0 80 0 80 -75 0 -75 0 0 -80z"/>
<path d="M780 4940 l0 -80 75 0 75 0 0 80 0 80 -75 0 -75 0 0 -80z"/>
<path d="M980 4940 l0 -80 75 0 75 0 0 80 0 80 -75 0 -75 0 0 -80z"/>
<path d="M1180 4940 l0 -80 75 0 75 0 0 80 0 80 -75 0 -75 0 0 -80z"/>
<path d="M1380 4940 l0 -80 75 0 75 0 0 80 0 80 -75 0 -75 0 0 -80z"/>
<path d="M1580 4940 l0 -80 75 0 75 0 0 80 0 80 -75 0 -75 0 0 -80z"/>
<path d="M1780 4940 l0 -80 75 0 75 0 0 80 0 80 -75 0 -75 0 0 -80z"/>
<path d="M1980 4940 l0 -80 75 0 75 0 0 80 0 80 -75 0 -75 0 0 -80z"/>
<path d="M2180 4940 l0 -80 75 0 75 0 0 80 0 80 -75 0 -75 0 0 -80z"/>
<path d="M2380 4940 l0 -80 75 0 75 0 0 80 0 80 -75 0 -75 0 0 -80z"/>
<path d="M2580 4940 l0 -80 75 0 75 0 0 80 0 80 -75 0 -75 0 0 -80z"/>
<path d="M2780 4940 l0 -80 75 0 75 0 0 80 0 80 -75 0 -75 0 0 -80z"/>
<path d="M2980 4940 l0 -80 75 0 75 0 0 80 0 80 -75 0 -75 0 0 -80z"/>
<path d="M3180 4940 l0 -80 75 0 75 0 0 80 0 80 -75 0 -75 0 0 -80z"/>
<path d="M3380 4940 l0 -80 75 0 75 0 0 80 0 80 -75 0 -75 0 0 -80z"/>
<path d="M3580 4940 l0 -80 75 0 75 0 0 80 0 80 -75 0 -75 0 0 -80z"/>
<path d="M3780 4940 l0 -80 75 0 75 0 0 80 0 80 -75 0 -75 0 0 -80z"/>
<path d="M3980 4940 l0 -80 75 0 75 0 0 80 0 80 -75 0 -75 0 0 -80z"/>
<path d="M4180 4940 l0 -80 75 0 75 0 0 80 0 80 -75 0 -75 0 0 -80z"/>
<path d="M4380 4940 l0 -80 75 0 75 0 0 80 0 80 -75 0 -75 0 0 -80z"/>
<path d="M4580 4940 l0 -80 75 0 75 0 0 80 0 80 -75 0 -75 0 0 -80z"/>
<path d="M4780 4940 l0 -80 75 0 75 0 0 80 0 80 -75 0 -75 0 0 -80z"/>
<path d="M4980 4940 l0 -80 75 0 75 0 0 80 0 80 -75 0 -75 0 0 -80z"/>
<path d="M5180 4940 l0 -80 75 0 75 0 0 80 0 80 -75 0 -75 0 0 -80z"/>
<path d="M5380 4940 l0 -80 75 0 75 0 0 80 0 80 -75 0 -75 0 0 -80z"/>
<path d="M5580 4940 l0 -80 75 0 75 0 0 80 0 80 -75 0 -75 0 0 -80z"/>
<path d="M5780 4940 l0 -80 75 0 75 0 0 80 0 80 -75 0 -75 0 0 -80z"/>
<path d="M5980 4940 l0 -80 75 0 75 0 0 80 0 80 -75 0 -75 0 0 -80z"/>
<path d="M6180 4940 l0 -80 75 0 75 0 0 80 0 80 -75 0 -75 0 0 -80z"/>
<path d="M6380 4940 l0 -80 75 0 75 0 0 80 0 80 -75 0 -75 0 0 -80z"/>
<path d="M6581 4963 c0 -43 2 -52 9 -37 5 12 13 25 19 29 6 3 11 16 11 28 0
20 0 20 15 1 14 -19 15 -19 21 3 3 12 13 24 23 26 9 3 -10 5 -41 6 l-58 1 1
-57z"/>
<path d="M6697 4987 l-19 -32 26 24 c26 24 33 41 19 41 -5 0 -16 -15 -26 -33z"/>
<path d="M6982 4941 l0 -81 74 0 74 0 0 64 c0 77 -9 86 -89 93 l-59 4 0 -80z"/>
<path d="M8580 4940 l0 -80 75 0 75 0 0 80 0 80 -75 0 -75 0 0 -80z"/>
<path d="M8780 4940 l0 -80 75 0 75 0 0 80 0 80 -75 0 -75 0 0 -80z"/>
<path d="M8980 4940 l0 -80 75 0 75 0 0 80 0 80 -75 0 -75 0 0 -80z"/>
<path d="M9180 4940 l0 -80 75 0 75 0 0 80 0 80 -75 0 -75 0 0 -80z"/>
<path d="M9380 4940 l0 -80 75 0 c76 0 92 9 64 37 -9 9 -9 23 0 58 6 25 9 50
6 56 -4 5 -37 9 -76 9 l-69 0 0 -80z"/>
<path d="M7180 4915 l0 -55 45 0 c43 0 45 1 33 20 -11 17 -10 22 1 29 22 14
-12 53 -49 57 l-30 4 0 -55z"/>
<path d="M8511 4953 c-6 -13 -5 -22 5 -31 12 -11 14 -8 14 18 0 34 -5 38 -19
13z"/>
<path d="M202 4790 c-16 -21 -22 -43 -22 -80 l0 -50 75 0 75 0 0 80 0 80 -53
0 c-47 0 -56 -3 -75 -30z"/>
<path d="M380 4740 l0 -80 75 0 75 0 0 80 0 80 -75 0 -75 0 0 -80z"/>
<path d="M580 4740 l0 -80 75 0 75 0 0 80 0 80 -75 0 -75 0 0 -80z"/>
<path d="M780 4740 l0 -80 75 0 75 0 0 80 0 80 -75 0 -75 0 0 -80z"/>
<path d="M980 4740 l0 -80 75 0 75 0 0 80 0 80 -75 0 -75 0 0 -80z"/>
<path d="M1180 4740 l0 -80 75 0 75 0 0 80 0 80 -75 0 -75 0 0 -80z"/>
<path d="M1380 4740 l0 -80 75 0 75 0 0 80 0 80 -75 0 -75 0 0 -80z"/>
<path d="M1580 4740 l0 -80 75 0 75 0 0 80 0 80 -75 0 -75 0 0 -80z"/>
<path d="M1780 4740 l0 -80 75 0 75 0 0 80 0 80 -75 0 -75 0 0 -80z"/>
<path d="M1980 4740 l0 -80 75 0 75 0 0 80 0 80 -75 0 -75 0 0 -80z"/>
<path d="M2180 4740 l0 -80 75 0 75 0 0 80 0 80 -75 0 -75 0 0 -80z"/>
<path d="M2380 4740 l0 -80 75 0 75 0 0 80 0 80 -75 0 -75 0 0 -80z"/>
<path d="M2580 4740 l0 -80 75 0 75 0 0 80 0 80 -75 0 -75 0 0 -80z"/>
<path d="M2780 4740 l0 -80 75 0 75 0 0 80 0 80 -75 0 -75 0 0 -80z"/>
<path d="M2980 4740 l0 -80 75 0 75 0 0 80 0 80 -75 0 -75 0 0 -80z"/>
<path d="M3180 4740 l0 -80 75 0 75 0 0 80 0 80 -75 0 -75 0 0 -80z"/>
<path d="M3380 4740 l0 -80 75 0 75 0 0 80 0 80 -75 0 -75 0 0 -80z"/>
<path d="M3580 4740 l0 -80 75 0 75 0 0 80 0 80 -75 0 -75 0 0 -80z"/>
<path d="M3780 4740 l0 -80 75 0 75 0 0 80 0 80 -75 0 -75 0 0 -80z"/>
<path d="M3980 4740 l0 -80 75 0 75 0 0 80 0 80 -75 0 -75 0 0 -80z"/>
<path d="M4180 4740 l0 -80 75 0 75 0 0 80 0 80 -75 0 -75 0 0 -80z"/>
<path d="M4380 4740 l0 -80 75 0 75 0 0 80 0 80 -75 0 -75 0 0 -80z"/>
<path d="M4580 4740 l0 -80 75 0 75 0 0 80 0 80 -75 0 -75 0 0 -80z"/>
<path d="M4780 4740 l0 -80 75 0 75 0 0 80 0 80 -75 0 -75 0 0 -80z"/>
<path d="M4980 4740 l0 -80 75 0 75 0 0 80 0 80 -75 0 -75 0 0 -80z"/>
<path d="M5180 4740 l0 -80 75 0 75 0 0 80 0 80 -75 0 -75 0 0 -80z"/>
<path d="M5380 4740 l0 -80 75 0 75 0 0 80 0 80 -75 0 -75 0 0 -80z"/>
<path d="M5580 4740 l0 -80 75 0 75 0 0 80 0 80 -75 0 -75 0 0 -80z"/>
<path d="M5780 4740 l0 -80 75 0 75 0 0 80 0 80 -75 0 -75 0 0 -80z"/>
<path d="M5980 4740 l0 -80 75 0 75 0 0 80 0 80 -75 0 -75 0 0 -80z"/>
<path d="M6180 4740 l0 -80 75 0 75 0 0 80 0 80 -75 0 -75 0 0 -80z"/>
<path d="M6380 4740 l0 -80 53 0 52 0 13 53 c7 28 17 54 22 55 6 2 10 15 10
28 0 23 -2 24 -75 24 l-75 0 0 -80z"/>
<path d="M6602 4791 c-6 -16 -8 -32 -5 -35 4 -3 1 -6 -5 -6 -7 0 -12 -15 -11
-37 0 -42 0 -43 37 55 16 40 18 52 7 52 -7 0 -18 -13 -23 -29z"/>
<path d="M6852 4810 c-12 -5 -25 -18 -28 -27 -3 -10 -10 -27 -15 -38 -5 -11
-7 -29 -5 -40 3 -11 5 -26 5 -32 1 -9 20 -13 61 -13 l60 0 0 68 c0 42 -4 62
-9 53 -11 -18 -31 -5 -31 20 0 21 -4 22 -38 9z"/>
<path d="M6980 4740 l0 -80 75 0 75 0 0 80 0 80 -75 0 -75 0 0 -80z"/>
<path d="M7180 4740 l0 -80 45 0 c43 0 45 1 45 29 0 16 6 31 15 35 16 6 19 35
9 74 -6 19 -13 22 -60 22 l-54 0 0 -80z"/>
<path d="M8580 4740 l0 -80 75 0 75 0 0 80 0 80 -75 0 -75 0 0 -80z"/>
<path d="M8780 4740 l0 -80 75 0 75 0 0 80 0 80 -75 0 -75 0 0 -80z"/>
<path d="M8980 4740 l0 -80 75 0 75 0 0 80 0 80 -75 0 -75 0 0 -80z"/>
<path d="M9180 4740 l0 -80 75 0 75 0 0 80 0 80 -75 0 -75 0 0 -80z"/>
<path d="M9380 4740 l0 -80 76 0 76 0 -4 80 -3 80 -72 0 -73 0 0 -80z"/>
<path d="M8510 4768 c-24 -35 -48 -52 -88 -63 -21 -6 -38 -18 -40 -28 -3 -15
6 -17 72 -17 l76 0 0 65 c0 36 -1 65 -3 65 -1 0 -9 -10 -17 -22z"/>
<path d="M9580 4705 l0 -45 63 0 c61 0 98 12 84 26 -4 4 -13 2 -19 -4 -17 -17
-58 -15 -64 3 -4 8 -13 15 -20 15 -8 0 -19 11 -24 25 -14 37 -20 31 -20 -20z"/>
<path d="M8213 4679 c-18 -5 -33 -12 -33 -14 0 -3 34 -5 76 -5 56 0 75 3 72
13 -6 15 -72 19 -115 6z"/>
<path d="M7380 4669 c0 -5 9 -9 20 -9 11 0 20 2 20 4 0 2 -9 6 -20 9 -11 3
-20 1 -20 -4z"/>
<path d="M180 4540 l0 -80 75 0 75 0 0 80 0 80 -75 0 -75 0 0 -80z"/>
<path d="M380 4540 l0 -80 75 0 75 0 0 80 0 80 -75 0 -75 0 0 -80z"/>
<path d="M580 4540 l0 -80 75 0 75 0 0 80 0 80 -75 0 -75 0 0 -80z"/>
<path d="M780 4540 l0 -80 75 0 75 0 0 80 0 80 -75 0 -75 0 0 -80z"/>
<path d="M980 4540 l0 -80 75 0 75 0 0 80 0 80 -75 0 -75 0 0 -80z"/>
<path d="M1180 4540 l0 -80 75 0 75 0 0 80 0 80 -75 0 -75 0 0 -80z"/>
<path d="M1380 4540 l0 -80 75 0 75 0 0 80 0 80 -75 0 -75 0 0 -80z"/>
<path d="M1580 4540 l0 -80 75 0 75 0 0 80 0 80 -75 0 -75 0 0 -80z"/>
<path d="M1780 4540 l0 -80 75 0 75 0 0 80 0 80 -75 0 -75 0 0 -80z"/>
<path d="M1980 4540 l0 -80 75 0 75 0 0 80 0 80 -75 0 -75 0 0 -80z"/>
<path d="M2180 4540 l0 -80 75 0 75 0 0 80 0 80 -75 0 -75 0 0 -80z"/>
<path d="M2380 4540 l0 -80 75 0 75 0 0 80 0 80 -75 0 -75 0 0 -80z"/>
<path d="M2580 4540 l0 -80 75 0 75 0 0 80 0 80 -75 0 -75 0 0 -80z"/>
<path d="M2780 4540 l0 -80 75 0 75 0 0 80 0 80 -75 0 -75 0 0 -80z"/>
<path d="M2980 4540 l0 -80 75 0 75 0 0 80 0 80 -75 0 -75 0 0 -80z"/>
<path d="M3180 4540 l0 -80 75 0 75 0 0 80 0 80 -75 0 -75 0 0 -80z"/>
<path d="M3380 4540 l0 -80 75 0 75 0 0 80 0 80 -75 0 -75 0 0 -80z"/>
<path d="M3580 4540 l0 -80 75 0 75 0 0 80 0 80 -75 0 -75 0 0 -80z"/>
<path d="M3780 4540 l0 -80 75 0 75 0 0 80 0 80 -75 0 -75 0 0 -80z"/>
<path d="M3980 4540 l0 -80 75 0 75 0 0 80 0 80 -75 0 -75 0 0 -80z"/>
<path d="M4180 4540 l0 -80 75 0 75 0 0 80 0 80 -75 0 -75 0 0 -80z"/>
<path d="M4380 4540 l0 -80 75 0 75 0 0 80 0 80 -75 0 -75 0 0 -80z"/>
<path d="M4580 4540 l0 -80 75 0 75 0 0 80 0 80 -75 0 -75 0 0 -80z"/>
<path d="M4780 4540 l0 -80 75 0 75 0 0 80 0 80 -75 0 -75 0 0 -80z"/>
<path d="M4980 4540 l0 -80 75 0 75 0 0 80 0 80 -75 0 -75 0 0 -80z"/>
<path d="M5180 4540 l0 -80 75 0 75 0 0 80 0 80 -75 0 -75 0 0 -80z"/>
<path d="M5380 4540 l0 -80 75 0 75 0 0 80 0 80 -75 0 -75 0 0 -80z"/>
<path d="M5580 4540 l0 -80 75 0 75 0 0 80 0 80 -75 0 -75 0 0 -80z"/>
<path d="M5780 4540 l0 -80 75 0 75 0 0 80 0 80 -75 0 -75 0 0 -80z"/>
<path d="M5980 4540 l0 -80 75 0 75 0 0 80 0 80 -75 0 -75 0 0 -80z"/>
<path d="M6180 4540 l0 -80 75 0 75 0 0 80 0 80 -75 0 -75 0 0 -80z"/>
<path d="M6380 4540 l0 -80 75 0 75 0 0 80 0 80 -75 0 -75 0 0 -80z"/>
<path d="M6785 4597 c-4 -12 -1 -35 4 -51 8 -19 8 -33 1 -47 -17 -31 -3 -39
71 -39 l69 0 0 80 0 80 -70 0 c-64 0 -70 -2 -75 -23z"/>
<path d="M6980 4540 l0 -80 75 0 75 0 0 80 0 80 -75 0 -75 0 0 -80z"/>
<path d="M7180 4540 l0 -80 75 0 75 0 0 83 0 82 -25 -42 c-23 -37 -28 -40 -53
-34 -21 6 -28 14 -30 39 -2 24 -8 32 -23 32 -17 0 -19 -8 -19 -80z"/>
<path d="M7380 4540 l0 -80 61 0 c45 0 60 3 57 13 -3 6 -15 42 -27 80 -22 65
-23 67 -57 67 l-34 0 0 -80z"/>
<path d="M8100 4601 c0 -10 7 -24 15 -31 13 -11 15 -8 15 19 0 21 -5 31 -15
31 -8 0 -15 -8 -15 -19z"/>
<path d="M8180 4540 l0 -80 75 0 75 0 0 80 0 80 -75 0 -75 0 0 -80z"/>
<path d="M8380 4540 l0 -80 75 0 75 0 0 80 0 80 -75 0 -75 0 0 -80z"/>
<path d="M8580 4540 l0 -80 75 0 75 0 0 80 0 80 -75 0 -75 0 0 -80z"/>
<path d="M8780 4540 l0 -80 75 0 75 0 0 80 0 80 -75 0 -75 0 0 -80z"/>
<path d="M8980 4540 l0 -80 75 0 75 0 0 80 0 80 -75 0 -75 0 0 -80z"/>
<path d="M9180 4540 l0 -80 75 0 75 0 0 80 0 80 -75 0 -75 0 0 -80z"/>
<path d="M9380 4545 c0 -69 2 -75 18 -67 9 5 38 19 64 31 47 22 47 23 45 67
l-2 44 -62 0 -63 0 0 -75z"/>
<path d="M9581 4604 c0 -11 3 -14 6 -6 3 7 2 16 -1 19 -3 4 -6 -2 -5 -13z"/>
<path d="M123 4520 c0 -25 2 -35 4 -22 2 12 2 32 0 45 -2 12 -4 2 -4 -23z"/>
<path d="M8121 4474 c0 -11 3 -14 6 -6 3 7 2 16 -1 19 -3 4 -6 -2 -5 -13z"/>
<path d="M180 4340 l0 -80 75 0 75 0 0 80 0 80 -75 0 -75 0 0 -80z"/>
<path d="M380 4340 l0 -80 75 0 75 0 0 80 0 80 -75 0 -75 0 0 -80z"/>
<path d="M580 4340 l0 -80 75 0 75 0 0 80 0 80 -75 0 -75 0 0 -80z"/>
<path d="M780 4340 l0 -80 75 0 75 0 0 80 0 80 -75 0 -75 0 0 -80z"/>
<path d="M980 4340 l0 -80 75 0 75 0 0 80 0 80 -75 0 -75 0 0 -80z"/>
<path d="M1180 4340 l0 -80 75 0 75 0 0 80 0 80 -75 0 -75 0 0 -80z"/>
<path d="M1380 4340 l0 -80 75 0 75 0 0 80 0 80 -75 0 -75 0 0 -80z"/>
<path d="M1580 4340 l0 -80 75 0 75 0 0 80 0 80 -75 0 -75 0 0 -80z"/>
<path d="M1780 4340 l0 -80 75 0 75 0 0 80 0 80 -75 0 -75 0 0 -80z"/>
<path d="M1980 4340 l0 -80 75 0 75 0 0 80 0 80 -75 0 -75 0 0 -80z"/>
<path d="M2180 4340 l0 -80 75 0 75 0 0 80 0 80 -75 0 -75 0 0 -80z"/>
<path d="M2380 4340 l0 -80 75 0 75 0 0 80 0 80 -75 0 -75 0 0 -80z"/>
<path d="M2580 4340 l0 -80 75 0 75 0 0 80 0 80 -75 0 -75 0 0 -80z"/>
<path d="M2780 4340 l0 -80 75 0 75 0 0 80 0 80 -75 0 -75 0 0 -80z"/>
<path d="M2980 4340 l0 -80 75 0 75 0 0 80 0 80 -75 0 -75 0 0 -80z"/>
<path d="M3180 4340 l0 -80 75 0 75 0 0 80 0 80 -75 0 -75 0 0 -80z"/>
<path d="M3380 4340 l0 -80 75 0 75 0 0 80 0 80 -75 0 -75 0 0 -80z"/>
<path d="M3580 4340 l0 -80 75 0 75 0 0 80 0 80 -75 0 -75 0 0 -80z"/>
<path d="M3780 4340 l0 -80 75 0 75 0 0 80 0 80 -75 0 -75 0 0 -80z"/>
<path d="M3980 4340 l0 -80 75 0 75 0 0 80 0 80 -75 0 -75 0 0 -80z"/>
<path d="M4180 4340 l0 -80 75 0 75 0 0 80 0 80 -75 0 -75 0 0 -80z"/>
<path d="M4380 4340 l0 -80 75 0 75 0 0 80 0 80 -75 0 -75 0 0 -80z"/>
<path d="M4580 4340 l0 -80 75 0 75 0 0 80 0 80 -75 0 -75 0 0 -80z"/>
<path d="M4780 4340 l0 -80 75 0 75 0 0 80 0 80 -75 0 -75 0 0 -80z"/>
<path d="M4980 4340 l0 -80 75 0 75 0 0 80 0 80 -75 0 -75 0 0 -80z"/>
<path d="M5180 4340 l0 -80 75 0 75 0 0 80 0 80 -75 0 -75 0 0 -80z"/>
<path d="M5380 4340 l0 -80 75 0 75 0 0 80 0 80 -75 0 -75 0 0 -80z"/>
<path d="M5580 4340 l0 -80 75 0 75 0 0 80 0 80 -75 0 -75 0 0 -80z"/>
<path d="M5780 4340 l0 -80 75 0 75 0 0 80 0 80 -75 0 -75 0 0 -80z"/>
<path d="M5980 4340 l0 -80 75 0 75 0 0 80 0 80 -75 0 -75 0 0 -80z"/>
<path d="M6180 4340 l0 -80 75 0 75 0 0 80 0 80 -75 0 -75 0 0 -80z"/>
<path d="M6380 4340 l0 -80 75 0 75 0 0 80 0 80 -75 0 -75 0 0 -80z"/>
<path d="M6834 4383 c14 -21 28 -57 32 -80 6 -39 9 -43 35 -43 l29 0 0 80 0
80 -60 0 -60 0 24 -37z"/>
<path d="M6980 4340 l0 -80 75 0 75 0 0 80 0 80 -75 0 -75 0 0 -80z"/>
<path d="M7180 4340 l0 -80 75 0 75 0 0 80 0 80 -75 0 -75 0 0 -80z"/>
<path d="M7380 4340 c0 -78 1 -80 24 -80 40 0 56 11 56 37 0 29 17 63 31 63 6
0 7 -4 4 -10 -3 -5 -2 -10 4 -10 17 0 23 19 16 50 -6 29 -8 30 -71 30 l-64 0
0 -80z"/>
<path d="M8028 4370 c-38 -36 -48 -53 -48 -78 l0 -32 75 0 75 0 0 80 0 80 -27
-2 c-18 -1 -45 -18 -75 -48z"/>
<path d="M8180 4340 l0 -80 75 0 75 0 0 80 0 80 -75 0 -75 0 0 -80z"/>
<path d="M8380 4340 l0 -80 75 0 75 0 0 80 0 80 -75 0 -75 0 0 -80z"/>
<path d="M8580 4340 l0 -80 75 0 75 0 0 80 0 80 -75 0 -75 0 0 -80z"/>
<path d="M8780 4340 l0 -80 75 0 75 0 0 80 0 80 -75 0 -75 0 0 -80z"/>
<path d="M8980 4340 l0 -81 73 3 72 3 3 78 3 77 -76 0 -75 0 0 -80z"/>
<path d="M9180 4384 l0 -36 40 32 c22 17 40 34 40 36 0 2 -18 4 -40 4 -39 0
-40 -1 -40 -36z"/>
<path d="M9380 4405 c0 -8 4 -15 9 -15 5 0 14 7 21 15 10 13 9 15 -9 15 -12 0
-21 -6 -21 -15z"/>
<path d="M9286 4385 c-15 -8 -34 -15 -41 -15 -27 0 -65 -41 -65 -71 0 -34 8
-35 58 -12 69 31 92 52 92 84 0 33 -4 35 -44 14z"/>
<path d="M112 4285 c-10 -21 -9 -25 3 -25 9 0 15 10 15 25 0 14 -2 25 -3 25
-2 0 -9 -11 -15 -25z"/>
<path d="M7915 4270 c-3 -5 -1 -10 4 -10 6 0 11 5 11 10 0 6 -2 10 -4 10 -3 0
-8 -4 -11 -10z"/>
<path d="M54 4167 c-23 -29 -44 -64 -46 -79 l-5 -28 63 0 64 0 0 80 c0 70 -2
80 -17 80 -10 -1 -37 -24 -59 -53z"/>
<path d="M180 4140 l0 -80 75 0 75 0 0 80 0 80 -75 0 -75 0 0 -80z"/>
<path d="M380 4140 l0 -80 75 0 75 0 0 80 0 80 -75 0 -75 0 0 -80z"/>
<path d="M580 4140 l0 -80 75 0 75 0 0 80 0 80 -75 0 -75 0 0 -80z"/>
<path d="M780 4140 l0 -80 75 0 75 0 0 80 0 80 -75 0 -75 0 0 -80z"/>
<path d="M980 4140 l0 -80 75 0 75 0 0 80 0 80 -75 0 -75 0 0 -80z"/>
<path d="M1180 4140 l0 -80 75 0 75 0 0 80 0 80 -75 0 -75 0 0 -80z"/>
<path d="M1380 4140 l0 -80 75 0 75 0 0 80 0 80 -75 0 -75 0 0 -80z"/>
<path d="M1580 4140 l0 -80 75 0 75 0 0 80 0 80 -75 0 -75 0 0 -80z"/>
<path d="M1780 4140 l0 -80 75 0 75 0 0 80 0 80 -75 0 -75 0 0 -80z"/>
<path d="M1980 4140 l0 -80 75 0 75 0 0 80 0 80 -75 0 -75 0 0 -80z"/>
<path d="M2180 4140 l0 -80 75 0 75 0 0 80 0 80 -75 0 -75 0 0 -80z"/>
<path d="M2380 4140 l0 -80 75 0 75 0 0 80 0 80 -75 0 -75 0 0 -80z"/>
<path d="M2580 4140 l0 -80 75 0 75 0 0 80 0 80 -75 0 -75 0 0 -80z"/>
<path d="M2780 4140 l0 -80 75 0 75 0 0 80 0 80 -75 0 -75 0 0 -80z"/>
<path d="M2980 4140 l0 -80 75 0 75 0 0 80 0 80 -75 0 -75 0 0 -80z"/>
<path d="M3180 4140 l0 -80 75 0 75 0 0 80 0 80 -75 0 -75 0 0 -80z"/>
<path d="M3380 4140 l0 -80 75 0 75 0 0 80 0 80 -75 0 -75 0 0 -80z"/>
<path d="M3580 4140 l0 -80 75 0 75 0 0 80 0 80 -75 0 -75 0 0 -80z"/>
<path d="M3780 4140 l0 -80 75 0 75 0 0 80 0 80 -75 0 -75 0 0 -80z"/>
<path d="M3980 4140 l0 -80 75 0 75 0 0 80 0 80 -75 0 -75 0 0 -80z"/>
<path d="M4180 4140 l0 -80 75 0 75 0 0 80 0 80 -75 0 -75 0 0 -80z"/>
<path d="M4380 4140 l0 -80 75 0 75 0 0 80 0 80 -75 0 -75 0 0 -80z"/>
<path d="M4580 4140 l0 -80 75 0 75 0 0 80 0 80 -75 0 -75 0 0 -80z"/>
<path d="M4780 4140 l0 -80 75 0 75 0 0 80 0 80 -75 0 -75 0 0 -80z"/>
<path d="M4980 4140 l0 -80 75 0 75 0 0 80 0 80 -75 0 -75 0 0 -80z"/>
<path d="M5180 4140 l0 -80 75 0 75 0 0 80 0 80 -75 0 -75 0 0 -80z"/>
<path d="M5380 4140 l0 -80 75 0 75 0 0 80 0 80 -75 0 -75 0 0 -80z"/>
<path d="M5580 4140 l0 -80 75 0 75 0 0 80 0 80 -75 0 -75 0 0 -80z"/>
<path d="M5780 4140 l0 -80 75 0 75 0 0 80 0 80 -75 0 -75 0 0 -80z"/>
<path d="M5980 4140 l0 -80 75 0 75 0 0 80 0 80 -75 0 -75 0 0 -80z"/>
<path d="M6180 4140 l0 -80 75 0 75 0 0 80 0 80 -75 0 -75 0 0 -80z"/>
<path d="M6380 4140 l0 -80 75 0 75 0 0 80 0 80 -75 0 -75 0 0 -80z"/>
<path d="M6581 4143 c-1 -82 -1 -83 24 -83 30 0 31 7 8 33 -10 11 -21 43 -24
76 -6 53 -6 52 -8 -26z"/>
<path d="M6870 4195 c0 -13 -9 -47 -20 -75 -11 -28 -20 -53 -20 -55 0 -3 23
-5 50 -5 l50 0 0 80 0 80 -30 0 c-25 0 -30 -4 -30 -25z"/>
<path d="M6980 4140 l0 -80 75 0 75 0 0 80 0 80 -75 0 -75 0 0 -80z"/>
<path d="M7180 4140 l0 -80 75 0 75 0 0 80 0 80 -75 0 -75 0 0 -80z"/>
<path d="M7380 4140 l0 -80 75 0 c46 0 75 4 75 11 0 6 -8 8 -20 4 -10 -3 -28
-2 -38 4 -10 5 -32 12 -48 14 -37 5 -41 25 -15 73 27 49 26 54 -4 54 -25 0
-25 -1 -25 -80z"/>
<path d="M7802 4197 c-17 -18 -22 -36 -22 -80 l0 -57 75 0 75 0 0 80 0 80 -53
0 c-43 0 -58 -5 -75 -23z"/>
<path d="M7980 4140 l0 -80 75 0 75 0 0 80 0 80 -75 0 -75 0 0 -80z"/>
<path d="M8180 4140 l0 -80 75 0 75 0 0 80 0 80 -75 0 -75 0 0 -80z"/>
<path d="M8380 4140 l0 -80 75 0 75 0 0 80 0 80 -75 0 -75 0 0 -80z"/>
<path d="M8580 4140 l0 -80 75 0 75 0 0 80 0 80 -75 0 -75 0 0 -80z"/>
<path d="M8780 4140 l0 -80 75 0 75 0 0 80 0 80 -75 0 -75 0 0 -80z"/>
<path d="M8980 4140 l0 -80 75 0 75 0 0 55 c0 48 -2 55 -20 55 -21 0 -27 15
-10 25 25 16 5 25 -55 25 l-65 0 0 -80z"/>
<path d="M7705 4104 c-11 -8 -25 -12 -32 -9 -8 2 -28 -4 -46 -15 l-32 -20 68
0 67 0 0 30 c0 35 1 34 -25 14z"/>
<path d="M40 4011 c0 -5 7 -25 15 -44 8 -20 15 -52 15 -72 0 -32 2 -35 30 -35
l30 0 0 80 0 80 -45 0 c-25 0 -45 -4 -45 -9z"/>
<path d="M180 3940 l0 -80 75 0 75 0 0 80 0 80 -75 0 -75 0 0 -80z"/>
<path d="M380 3940 l0 -80 75 0 75 0 0 80 0 80 -75 0 -75 0 0 -80z"/>
<path d="M580 3940 l0 -80 75 0 75 0 0 80 0 80 -75 0 -75 0 0 -80z"/>
<path d="M780 3940 l0 -80 75 0 75 0 0 80 0 80 -75 0 -75 0 0 -80z"/>
<path d="M980 3940 l0 -80 75 0 75 0 0 80 0 80 -75 0 -75 0 0 -80z"/>
<path d="M1180 3940 l0 -80 75 0 75 0 0 80 0 80 -75 0 -75 0 0 -80z"/>
<path d="M1380 3940 l0 -80 75 0 75 0 0 80 0 80 -75 0 -75 0 0 -80z"/>
<path d="M1580 3940 l0 -80 75 0 75 0 0 80 0 80 -75 0 -75 0 0 -80z"/>
<path d="M1780 3940 l0 -80 75 0 75 0 0 80 0 80 -75 0 -75 0 0 -80z"/>
<path d="M1980 3940 l0 -80 75 0 75 0 0 80 0 80 -75 0 -75 0 0 -80z"/>
<path d="M2180 3940 l0 -80 75 0 75 0 0 80 0 80 -75 0 -75 0 0 -80z"/>
<path d="M2380 3940 l0 -80 75 0 75 0 0 80 0 80 -75 0 -75 0 0 -80z"/>
<path d="M2580 3940 l0 -80 75 0 75 0 0 80 0 80 -75 0 -75 0 0 -80z"/>
<path d="M2780 3940 l0 -80 75 0 75 0 0 80 0 80 -75 0 -75 0 0 -80z"/>
<path d="M2980 3940 l0 -80 75 0 75 0 0 80 0 80 -75 0 -75 0 0 -80z"/>
<path d="M3180 3940 l0 -80 75 0 75 0 0 80 0 80 -75 0 -75 0 0 -80z"/>
<path d="M3380 3940 l0 -80 75 0 75 0 0 80 0 80 -75 0 -75 0 0 -80z"/>
<path d="M3580 3940 l0 -80 75 0 75 0 0 80 0 80 -75 0 -75 0 0 -80z"/>
<path d="M3780 3940 l0 -80 75 0 75 0 0 80 0 80 -75 0 -75 0 0 -80z"/>
<path d="M3980 3940 l0 -80 75 0 75 0 0 80 0 80 -75 0 -75 0 0 -80z"/>
<path d="M4180 3940 l0 -80 75 0 75 0 0 80 0 80 -75 0 -75 0 0 -80z"/>
<path d="M4380 3940 l0 -80 75 0 75 0 0 80 0 80 -75 0 -75 0 0 -80z"/>
<path d="M4580 3940 l0 -80 75 0 75 0 0 80 0 80 -75 0 -75 0 0 -80z"/>
<path d="M4780 3940 l0 -80 75 0 75 0 0 80 0 80 -75 0 -75 0 0 -80z"/>
<path d="M4980 3940 l0 -80 75 0 75 0 0 80 0 80 -75 0 -75 0 0 -80z"/>
<path d="M5180 3940 l0 -80 75 0 75 0 0 80 0 80 -75 0 -75 0 0 -80z"/>
<path d="M5380 3940 l0 -80 75 0 75 0 0 80 0 80 -75 0 -75 0 0 -80z"/>
<path d="M5580 3940 l0 -80 75 0 75 0 0 80 0 80 -75 0 -75 0 0 -80z"/>
<path d="M5780 3940 l0 -80 75 0 75 0 0 80 0 80 -75 0 -75 0 0 -80z"/>
<path d="M5980 3940 l0 -80 75 0 75 0 0 80 0 80 -75 0 -75 0 0 -80z"/>
<path d="M6180 3940 l0 -80 75 0 75 0 0 80 0 80 -75 0 -75 0 0 -80z"/>
<path d="M6380 3940 l0 -80 75 0 75 0 0 80 0 80 -75 0 -75 0 0 -80z"/>
<path d="M6580 3940 l0 -80 75 0 75 0 0 60 0 60 -31 0 c-22 0 -32 5 -36 20 -4
16 -14 20 -44 20 l-39 0 0 -80z"/>
<path d="M6787 4013 c-4 -3 -7 -39 -7 -80 l0 -73 75 0 75 0 0 80 0 80 -68 0
c-38 0 -72 -3 -75 -7z"/>
<path d="M6980 3940 l0 -80 75 0 75 0 0 80 0 80 -75 0 -75 0 0 -80z"/>
<path d="M7180 3940 l0 -80 75 0 75 0 0 80 0 80 -75 0 -75 0 0 -80z"/>
<path d="M7380 3940 l0 -80 75 0 75 0 0 80 0 80 -75 0 -75 0 0 -80z"/>
<path d="M7580 3940 l0 -80 75 0 75 0 0 80 0 80 -75 0 -75 0 0 -80z"/>
<path d="M7780 3940 l0 -80 75 0 75 0 0 80 0 80 -75 0 -75 0 0 -80z"/>
<path d="M7980 3940 l0 -80 75 0 75 0 0 80 0 80 -75 0 -75 0 0 -80z"/>
<path d="M8180 3940 l0 -80 75 0 75 0 0 80 0 80 -75 0 -75 0 0 -80z"/>
<path d="M8380 3940 l0 -80 75 0 75 0 0 80 0 80 -75 0 -75 0 0 -80z"/>
<path d="M8580 3940 l0 -80 75 0 75 0 0 80 0 80 -75 0 -75 0 0 -80z"/>
<path d="M8780 3940 c0 -73 2 -80 19 -80 11 0 23 5 26 10 3 6 11 10 16 10 6 0
7 -4 4 -10 -4 -6 12 -10 40 -10 l45 0 -16 25 c-8 13 -12 30 -8 36 5 9 10 7 15
-7 5 -12 8 4 8 44 l1 62 -75 0 -75 0 0 -80z"/>
<path d="M8980 3940 l0 -80 59 0 c51 0 61 3 75 25 10 15 16 46 16 80 l0 55
-75 0 -75 0 0 -80z"/>
<path d="M48 3768 c-2 -29 0 -65 5 -80 7 -23 15 -28 43 -28 l34 0 0 80 0 80
-39 0 -39 0 -4 -52z"/>
<path d="M180 3740 l0 -80 75 0 75 0 0 80 0 80 -75 0 -75 0 0 -80z"/>
<path d="M380 3740 l0 -80 75 0 75 0 0 80 0 80 -75 0 -75 0 0 -80z"/>
<path d="M580 3740 l0 -80 75 0 75 0 0 80 0 80 -75 0 -75 0 0 -80z"/>
<path d="M780 3740 l0 -80 75 0 75 0 0 80 0 80 -75 0 -75 0 0 -80z"/>
<path d="M980 3740 l0 -80 75 0 75 0 0 80 0 80 -75 0 -75 0 0 -80z"/>
<path d="M1180 3740 l0 -80 75 0 75 0 0 80 0 80 -75 0 -75 0 0 -80z"/>
<path d="M1380 3740 l0 -80 75 0 75 0 0 80 0 80 -75 0 -75 0 0 -80z"/>
<path d="M1580 3740 l0 -80 75 0 75 0 0 80 0 80 -75 0 -75 0 0 -80z"/>
<path d="M1780 3740 l0 -80 75 0 75 0 0 80 0 80 -75 0 -75 0 0 -80z"/>
<path d="M1980 3740 l0 -80 75 0 75 0 0 80 0 80 -75 0 -75 0 0 -80z"/>
<path d="M2180 3740 l0 -80 75 0 75 0 0 80 0 80 -75 0 -75 0 0 -80z"/>
<path d="M2380 3740 l0 -80 75 0 75 0 0 80 0 80 -75 0 -75 0 0 -80z"/>
<path d="M2580 3740 l0 -80 75 0 75 0 0 80 0 80 -75 0 -75 0 0 -80z"/>
<path d="M2780 3740 l0 -80 75 0 75 0 0 80 0 80 -75 0 -75 0 0 -80z"/>
<path d="M2980 3740 l0 -80 75 0 75 0 0 80 0 80 -75 0 -75 0 0 -80z"/>
<path d="M3180 3740 l0 -80 75 0 75 0 0 80 0 80 -75 0 -75 0 0 -80z"/>
<path d="M3380 3740 l0 -80 75 0 75 0 0 80 0 80 -75 0 -75 0 0 -80z"/>
<path d="M3580 3740 l0 -80 75 0 75 0 0 80 0 80 -75 0 -75 0 0 -80z"/>
<path d="M3780 3740 l0 -80 75 0 75 0 0 80 0 80 -75 0 -75 0 0 -80z"/>
<path d="M3980 3740 l0 -80 75 0 75 0 0 80 0 80 -75 0 -75 0 0 -80z"/>
<path d="M4180 3740 l0 -80 75 0 75 0 0 80 0 80 -75 0 -75 0 0 -80z"/>
<path d="M4380 3740 l0 -80 75 0 75 0 0 80 0 80 -75 0 -75 0 0 -80z"/>
<path d="M4580 3740 l0 -80 75 0 75 0 0 80 0 80 -75 0 -75 0 0 -80z"/>
<path d="M4780 3740 l0 -80 75 0 75 0 0 80 0 80 -75 0 -75 0 0 -80z"/>
<path d="M4980 3740 l0 -80 75 0 75 0 0 80 0 80 -75 0 -75 0 0 -80z"/>
<path d="M5180 3740 l0 -80 75 0 75 0 0 80 0 80 -75 0 -75 0 0 -80z"/>
<path d="M5380 3740 l0 -80 75 0 75 0 0 80 0 80 -75 0 -75 0 0 -80z"/>
<path d="M5580 3740 l0 -80 75 0 75 0 0 80 0 80 -75 0 -75 0 0 -80z"/>
<path d="M5780 3740 l0 -80 75 0 75 0 0 80 0 80 -75 0 -75 0 0 -80z"/>
<path d="M5980 3740 l0 -80 75 0 75 0 0 80 0 80 -75 0 -75 0 0 -80z"/>
<path d="M6180 3740 l0 -80 75 0 75 0 0 80 0 80 -75 0 -75 0 0 -80z"/>
<path d="M6380 3740 l0 -80 75 0 75 0 0 80 0 80 -75 0 -75 0 0 -80z"/>
<path d="M6580 3740 l0 -80 75 0 75 0 0 80 0 80 -75 0 -75 0 0 -80z"/>
<path d="M6780 3740 l0 -80 75 0 75 0 0 80 0 80 -75 0 -75 0 0 -80z"/>
<path d="M6980 3740 l0 -80 75 0 75 0 0 80 0 80 -75 0 -75 0 0 -80z"/>
<path d="M7180 3740 l0 -80 75 0 75 0 0 80 0 80 -75 0 -75 0 0 -80z"/>
<path d="M7380 3740 l0 -80 75 0 75 0 0 80 0 80 -75 0 -75 0 0 -80z"/>
<path d="M7580 3740 l0 -80 75 0 75 0 0 80 0 80 -75 0 -75 0 0 -80z"/>
<path d="M7780 3740 l0 -80 75 0 75 0 0 80 0 80 -75 0 -75 0 0 -80z"/>
<path d="M7980 3740 l0 -80 75 0 75 0 0 80 0 80 -75 0 -75 0 0 -80z"/>
<path d="M8180 3740 l0 -80 75 0 75 0 0 80 0 80 -75 0 -75 0 0 -80z"/>
<path d="M8380 3740 l0 -80 75 0 75 0 0 80 0 80 -75 0 -75 0 0 -80z"/>
<path d="M8580 3740 l0 -80 75 0 75 0 0 80 0 80 -75 0 -75 0 0 -80z"/>
<path d="M8820 3790 c0 -16 5 -30 10 -30 16 0 12 -21 -7 -37 -16 -13 -16 -14
-1 -9 19 5 33 -20 15 -28 -21 -8 15 -26 56 -26 l37 0 0 80 0 80 -55 0 c-54 0
-55 0 -55 -30z"/>
<path d="M9070 3805 c0 -8 2 -15 4 -15 2 0 6 7 10 15 3 8 1 15 -4 15 -6 0 -10
-7 -10 -15z"/>
<path d="M8980 3721 l0 -61 46 0 c45 0 46 1 40 28 -4 15 -14 32 -23 37 -9 6
-27 21 -40 34 l-23 24 0 -62z"/>
<path d="M8782 3720 c0 -14 2 -19 5 -12 2 6 2 18 0 25 -3 6 -5 1 -5 -13z"/>
<path d="M90 3614 c0 -3 9 -17 20 -31 l20 -26 0 32 c0 24 -4 31 -20 31 -11 0
-20 -3 -20 -6z"/>
<path d="M180 3542 l0 -78 75 -2 75 -2 0 80 0 80 -75 0 -75 0 0 -78z"/>
<path d="M380 3540 l0 -80 75 0 75 0 0 80 0 80 -75 0 -75 0 0 -80z"/>
<path d="M580 3540 l0 -80 75 0 75 0 0 80 0 80 -75 0 -75 0 0 -80z"/>
<path d="M780 3540 l0 -80 75 0 75 0 0 80 0 80 -75 0 -75 0 0 -80z"/>
<path d="M980 3540 l0 -80 75 0 75 0 0 80 0 80 -75 0 -75 0 0 -80z"/>
<path d="M1180 3540 l0 -80 75 0 75 0 0 80 0 80 -75 0 -75 0 0 -80z"/>
<path d="M1380 3540 l0 -80 75 0 75 0 0 80 0 80 -75 0 -75 0 0 -80z"/>
<path d="M1580 3540 l0 -80 75 0 75 0 0 80 0 80 -75 0 -75 0 0 -80z"/>
<path d="M1780 3540 l0 -80 75 0 75 0 0 80 0 80 -75 0 -75 0 0 -80z"/>
<path d="M1980 3540 l0 -80 75 0 75 0 0 80 0 80 -75 0 -75 0 0 -80z"/>
<path d="M2180 3540 l0 -80 75 0 75 0 0 80 0 80 -75 0 -75 0 0 -80z"/>
<path d="M2380 3540 l0 -80 75 0 75 0 0 80 0 80 -75 0 -75 0 0 -80z"/>
<path d="M2580 3540 l0 -80 75 0 75 0 0 80 0 80 -75 0 -75 0 0 -80z"/>
<path d="M2780 3540 l0 -80 75 0 75 0 0 80 0 80 -75 0 -75 0 0 -80z"/>
<path d="M2980 3540 l0 -80 75 0 75 0 0 80 0 80 -75 0 -75 0 0 -80z"/>
<path d="M3180 3540 l0 -80 75 0 75 0 0 80 0 80 -75 0 -75 0 0 -80z"/>
<path d="M3380 3540 l0 -80 75 0 75 0 0 80 0 80 -75 0 -75 0 0 -80z"/>
<path d="M3580 3540 l0 -80 75 0 75 0 0 80 0 80 -75 0 -75 0 0 -80z"/>
<path d="M3780 3540 l0 -80 75 0 75 0 0 80 0 80 -75 0 -75 0 0 -80z"/>
<path d="M3980 3540 l0 -80 75 0 75 0 0 80 0 80 -75 0 -75 0 0 -80z"/>
<path d="M4180 3540 l0 -80 75 0 75 0 0 80 0 80 -75 0 -75 0 0 -80z"/>
<path d="M4380 3540 l0 -80 75 0 75 0 0 80 0 80 -75 0 -75 0 0 -80z"/>
<path d="M4580 3540 l0 -80 75 0 75 0 0 80 0 80 -75 0 -75 0 0 -80z"/>
<path d="M4780 3540 l0 -80 75 0 75 0 0 80 0 80 -75 0 -75 0 0 -80z"/>
<path d="M4980 3540 l0 -80 75 0 75 0 0 80 0 80 -75 0 -75 0 0 -80z"/>
<path d="M5180 3540 l0 -80 75 0 75 0 0 80 0 80 -75 0 -75 0 0 -80z"/>
<path d="M5380 3540 l0 -80 75 0 75 0 0 80 0 80 -75 0 -75 0 0 -80z"/>
<path d="M5580 3540 l0 -80 75 0 75 0 0 80 0 80 -75 0 -75 0 0 -80z"/>
<path d="M5780 3540 l0 -80 75 0 75 0 0 80 0 80 -75 0 -75 0 0 -80z"/>
<path d="M5980 3540 l0 -80 75 0 75 0 0 80 0 80 -75 0 -75 0 0 -80z"/>
<path d="M6180 3540 l0 -80 75 0 75 0 0 80 0 80 -75 0 -75 0 0 -80z"/>
<path d="M6380 3540 l0 -80 75 0 75 0 0 80 0 80 -75 0 -75 0 0 -80z"/>
<path d="M6580 3540 l0 -80 75 0 75 0 0 80 0 80 -75 0 -75 0 0 -80z"/>
<path d="M6780 3540 l0 -80 75 0 75 0 0 80 0 80 -75 0 -75 0 0 -80z"/>
<path d="M6980 3540 l0 -80 75 0 75 0 0 80 0 80 -75 0 -75 0 0 -80z"/>
<path d="M7180 3540 l0 -80 75 0 75 0 0 80 0 80 -75 0 -75 0 0 -80z"/>
<path d="M7380 3540 l0 -80 75 0 75 0 0 80 0 80 -75 0 -75 0 0 -80z"/>
<path d="M7580 3540 l0 -80 75 0 75 0 0 80 0 80 -75 0 -75 0 0 -80z"/>
<path d="M7780 3540 l0 -80 75 0 75 0 0 80 0 80 -75 0 -75 0 0 -80z"/>
<path d="M7980 3540 l0 -80 75 0 75 0 0 80 0 80 -75 0 -75 0 0 -80z"/>
<path d="M8180 3540 l0 -80 75 0 75 0 0 80 0 80 -75 0 -75 0 0 -80z"/>
<path d="M8380 3540 l0 -80 75 0 75 0 0 80 0 80 -75 0 -75 0 0 -80z"/>
<path d="M8580 3540 l0 -80 75 0 75 0 0 29 c0 48 -9 62 -31 48 -27 -17 -43 3
-34 42 4 17 11 31 16 31 5 0 5 -10 0 -23 -12 -31 1 -54 19 -33 7 9 16 13 21
10 5 -3 9 9 9 25 l0 31 -75 0 -75 0 0 -80z"/>
<path d="M8780 3576 c0 -41 2 -44 31 -50 48 -9 49 -8 32 25 -15 31 -48 69 -58
69 -3 0 -5 -20 -5 -44z"/>
<path d="M8850 3613 c1 -16 28 -43 44 -43 9 0 15 3 15 8 -3 19 2 25 11 12 8
-12 10 -11 10 8 0 19 -5 22 -40 22 -22 0 -40 -3 -40 -7z"/>
<path d="M8980 3570 c0 -27 4 -50 9 -50 5 0 8 -13 6 -30 -3 -24 0 -30 15 -30
13 0 20 7 20 20 0 10 7 23 15 28 9 5 18 29 22 60 l6 52 -47 0 -46 0 0 -50z"/>
<path d="M8780 3485 c0 -24 3 -25 58 -24 l57 1 -32 14 c-17 7 -34 18 -38 24
-3 5 -15 10 -26 10 -14 0 -19 -7 -19 -25z"/>
<path d="M232 3388 c6 -18 13 -46 15 -63 l6 -30 -25 23 c-18 16 -24 30 -20 47
2 14 0 25 -6 25 -12 0 -20 -47 -14 -94 l4 -36 69 0 69 0 0 80 0 80 -54 0 -55
0 11 -32z"/>
<path d="M380 3340 l0 -80 75 0 75 0 0 80 0 80 -75 0 -75 0 0 -80z"/>
<path d="M580 3340 l0 -80 75 0 75 0 0 80 0 80 -75 0 -75 0 0 -80z"/>
<path d="M780 3340 l0 -80 75 0 75 0 0 80 0 80 -75 0 -75 0 0 -80z"/>
<path d="M980 3340 l0 -80 75 0 75 0 0 80 0 80 -75 0 -75 0 0 -80z"/>
<path d="M1180 3340 l0 -80 75 0 75 0 0 80 0 80 -75 0 -75 0 0 -80z"/>
<path d="M1380 3340 l0 -80 75 0 75 0 0 80 0 80 -75 0 -75 0 0 -80z"/>
<path d="M1580 3340 l0 -80 75 0 75 0 0 80 0 80 -75 0 -75 0 0 -80z"/>
<path d="M1780 3340 l0 -80 75 0 75 0 0 80 0 80 -75 0 -75 0 0 -80z"/>
<path d="M1980 3340 l0 -80 75 0 75 0 0 80 0 80 -75 0 -75 0 0 -80z"/>
<path d="M2180 3340 l0 -80 75 0 75 0 0 80 0 80 -75 0 -75 0 0 -80z"/>
<path d="M2380 3340 l0 -80 75 0 75 0 0 80 0 80 -75 0 -75 0 0 -80z"/>
<path d="M2580 3340 l0 -80 75 0 75 0 0 80 0 80 -75 0 -75 0 0 -80z"/>
<path d="M2780 3340 l0 -80 75 0 75 0 0 80 0 80 -75 0 -75 0 0 -80z"/>
<path d="M2980 3340 l0 -80 75 0 75 0 0 80 0 80 -75 0 -75 0 0 -80z"/>
<path d="M3180 3340 l0 -80 75 0 75 0 0 80 0 80 -75 0 -75 0 0 -80z"/>
<path d="M3380 3340 l0 -80 75 0 75 0 0 80 0 80 -75 0 -75 0 0 -80z"/>
<path d="M3580 3340 l0 -80 75 0 75 0 0 80 0 80 -75 0 -75 0 0 -80z"/>
<path d="M3780 3340 l0 -80 75 0 75 0 0 80 0 80 -75 0 -75 0 0 -80z"/>
<path d="M3980 3340 l0 -80 75 0 75 0 0 80 0 80 -75 0 -75 0 0 -80z"/>
<path d="M4180 3340 l0 -80 75 0 75 0 0 80 0 80 -75 0 -75 0 0 -80z"/>
<path d="M4380 3340 l0 -80 75 0 75 0 0 80 0 80 -75 0 -75 0 0 -80z"/>
<path d="M4580 3340 l0 -80 75 0 75 0 0 80 0 80 -75 0 -75 0 0 -80z"/>
<path d="M4780 3340 l0 -80 75 0 75 0 0 80 0 80 -75 0 -75 0 0 -80z"/>
<path d="M4980 3340 l0 -80 75 0 75 0 0 80 0 80 -75 0 -75 0 0 -80z"/>
<path d="M5180 3340 l0 -80 75 0 75 0 0 80 0 80 -75 0 -75 0 0 -80z"/>
<path d="M5380 3340 l0 -80 75 0 75 0 0 80 0 80 -75 0 -75 0 0 -80z"/>
<path d="M5580 3340 l0 -80 75 0 75 0 0 80 0 80 -75 0 -75 0 0 -80z"/>
<path d="M5780 3340 l0 -80 75 0 75 0 0 80 0 80 -75 0 -75 0 0 -80z"/>
<path d="M5980 3340 l0 -80 75 0 75 0 0 80 0 80 -75 0 -75 0 0 -80z"/>
<path d="M6180 3340 l0 -80 75 0 75 0 0 80 0 80 -75 0 -75 0 0 -80z"/>
<path d="M6380 3340 l0 -80 75 0 75 0 0 80 0 80 -75 0 -75 0 0 -80z"/>
<path d="M6580 3340 l0 -80 75 0 75 0 0 80 0 80 -75 0 -75 0 0 -80z"/>
<path d="M6780 3340 l0 -80 75 0 75 0 0 80 0 80 -75 0 -75 0 0 -80z"/>
<path d="M6980 3340 l0 -80 75 0 75 0 0 80 0 80 -75 0 -75 0 0 -80z"/>
<path d="M7180 3340 l0 -80 75 0 75 0 0 80 0 80 -75 0 -75 0 0 -80z"/>
<path d="M7380 3340 l0 -80 75 0 75 0 0 80 0 80 -75 0 -75 0 0 -80z"/>
<path d="M7580 3340 l0 -80 75 0 75 0 0 80 0 80 -75 0 -75 0 0 -80z"/>
<path d="M7780 3340 l0 -80 75 0 75 0 0 80 0 80 -75 0 -75 0 0 -80z"/>
<path d="M7980 3340 l0 -80 75 0 75 0 0 80 0 80 -75 0 -75 0 0 -80z"/>
<path d="M8180 3340 l0 -80 75 0 75 0 0 80 0 80 -75 0 -75 0 0 -80z"/>
<path d="M8380 3340 l0 -80 75 0 75 0 0 80 0 80 -75 0 -75 0 0 -80z"/>
<path d="M8580 3340 l0 -80 75 0 75 0 0 80 0 80 -75 0 -75 0 0 -80z"/>
<path d="M8780 3340 l0 -80 40 0 c22 0 40 5 40 11 0 5 -4 7 -10 4 -5 -3 -10
-1 -10 4 0 16 19 13 36 -4 19 -19 54 -19 54 -1 0 8 -8 17 -17 20 -11 3 -19 17
-19 32 -2 18 2 24 12 20 17 -7 17 4 0 27 -7 9 -22 17 -33 17 -11 0 -26 7 -33
15 -7 8 -23 15 -36 15 -23 0 -24 -2 -24 -80z"/>
<path d="M8850 3416 c0 -2 9 -6 20 -9 11 -3 20 -1 20 4 0 5 -9 9 -20 9 -11 0
-20 -2 -20 -4z"/>
<path d="M8982 3368 c4 -70 22 -72 35 -3 9 54 9 55 -14 55 -23 0 -24 -3 -21
-52z"/>
<path d="M204 3204 c3 -9 6 -18 6 -20 0 -2 8 -4 18 -4 43 0 57 -55 22 -90 -11
-11 -20 -22 -20 -25 0 -3 23 -5 50 -5 l50 0 0 80 0 80 -66 0 c-56 0 -65 -2
-60 -16z"/>
<path d="M380 3140 l0 -80 75 0 75 0 0 80 0 80 -75 0 -75 0 0 -80z"/>
<path d="M580 3140 l0 -80 75 0 75 0 0 80 0 80 -75 0 -75 0 0 -80z"/>
<path d="M780 3140 l0 -80 75 0 75 0 0 80 0 80 -75 0 -75 0 0 -80z"/>
<path d="M980 3140 l0 -80 75 0 75 0 0 80 0 80 -75 0 -75 0 0 -80z"/>
<path d="M1180 3140 l0 -80 75 0 75 0 0 80 0 80 -75 0 -75 0 0 -80z"/>
<path d="M1380 3140 l0 -80 75 0 75 0 0 80 0 80 -75 0 -75 0 0 -80z"/>
<path d="M1580 3140 l0 -80 75 0 75 0 0 80 0 80 -75 0 -75 0 0 -80z"/>
<path d="M1780 3140 l0 -80 75 0 75 0 0 80 0 80 -75 0 -75 0 0 -80z"/>
<path d="M1980 3140 l0 -80 75 0 75 0 0 80 0 80 -75 0 -75 0 0 -80z"/>
<path d="M2180 3140 l0 -80 75 0 75 0 0 80 0 80 -75 0 -75 0 0 -80z"/>
<path d="M2380 3140 l0 -80 75 0 75 0 0 80 0 80 -75 0 -75 0 0 -80z"/>
<path d="M2580 3140 l0 -80 75 0 75 0 0 80 0 80 -75 0 -75 0 0 -80z"/>
<path d="M2780 3140 l0 -80 75 0 75 0 0 80 0 80 -75 0 -75 0 0 -80z"/>
<path d="M2980 3140 l0 -80 75 0 75 0 0 80 0 80 -75 0 -75 0 0 -80z"/>
<path d="M3180 3140 l0 -80 75 0 75 0 0 80 0 80 -75 0 -75 0 0 -80z"/>
<path d="M3380 3140 l0 -80 75 0 75 0 0 80 0 80 -75 0 -75 0 0 -80z"/>
<path d="M3580 3140 l0 -80 75 0 75 0 0 80 0 80 -75 0 -75 0 0 -80z"/>
<path d="M3780 3140 l0 -80 75 0 75 0 0 80 0 80 -75 0 -75 0 0 -80z"/>
<path d="M3980 3140 l0 -80 75 0 75 0 0 80 0 80 -75 0 -75 0 0 -80z"/>
<path d="M4180 3140 l0 -80 75 0 75 0 0 80 0 80 -75 0 -75 0 0 -80z"/>
<path d="M4380 3140 l0 -80 75 0 75 0 0 80 0 80 -75 0 -75 0 0 -80z"/>
<path d="M4580 3140 l0 -80 75 0 75 0 0 80 0 80 -75 0 -75 0 0 -80z"/>
<path d="M4780 3140 l0 -80 75 0 75 0 0 80 0 80 -75 0 -75 0 0 -80z"/>
<path d="M4980 3140 l0 -80 75 0 75 0 0 80 0 80 -75 0 -75 0 0 -80z"/>
<path d="M5180 3140 l0 -80 75 0 75 0 0 80 0 80 -75 0 -75 0 0 -80z"/>
<path d="M5380 3140 l0 -80 75 0 75 0 0 80 0 80 -75 0 -75 0 0 -80z"/>
<path d="M5580 3140 l0 -80 75 0 75 0 0 80 0 80 -75 0 -75 0 0 -80z"/>
<path d="M5780 3140 l0 -80 75 0 75 0 0 80 0 80 -75 0 -75 0 0 -80z"/>
<path d="M5980 3140 l0 -80 75 0 75 0 0 80 0 80 -75 0 -75 0 0 -80z"/>
<path d="M6180 3140 l0 -80 75 0 75 0 0 80 0 80 -75 0 -75 0 0 -80z"/>
<path d="M6380 3140 l0 -80 75 0 75 0 0 80 0 80 -75 0 -75 0 0 -80z"/>
<path d="M6580 3140 l0 -80 75 0 75 0 0 80 0 80 -75 0 -75 0 0 -80z"/>
<path d="M6780 3140 l0 -80 75 0 75 0 0 80 0 80 -75 0 -75 0 0 -80z"/>
<path d="M6980 3140 l0 -80 75 0 75 0 0 80 0 80 -75 0 -75 0 0 -80z"/>
<path d="M7180 3140 l0 -80 75 0 75 0 0 80 0 80 -75 0 -75 0 0 -80z"/>
<path d="M7380 3140 l0 -80 75 0 75 0 0 80 0 80 -75 0 -75 0 0 -80z"/>
<path d="M7580 3140 l0 -80 75 0 75 0 0 80 0 80 -75 0 -75 0 0 -80z"/>
<path d="M7780 3140 l0 -80 75 0 75 0 0 80 0 80 -75 0 -75 0 0 -80z"/>
<path d="M7980 3140 l0 -80 75 0 75 0 0 80 0 80 -75 0 -75 0 0 -80z"/>
<path d="M8180 3140 l0 -80 75 0 75 0 0 80 0 80 -75 0 -75 0 0 -80z"/>
<path d="M8380 3140 l0 -80 75 0 75 0 0 80 0 80 -75 0 -75 0 0 -80z"/>
<path d="M8580 3140 l0 -80 75 0 75 0 0 80 0 80 -75 0 -75 0 0 -80z"/>
<path d="M8780 3140 l0 -80 75 0 75 0 0 80 0 80 -75 0 -75 0 0 -80z"/>
<path d="M8980 3140 c0 -79 0 -80 25 -80 14 0 25 5 25 11 0 7 10 9 25 7 l24
-5 -17 30 c-9 16 -23 31 -29 34 -18 7 -16 23 2 23 12 0 11 5 -3 30 -9 16 -25
30 -34 30 -16 0 -18 -10 -18 -80z"/>
<path d="M230 3005 c0 -8 4 -15 8 -15 5 0 17 -19 27 -42 31 -77 38 -88 52 -88
10 0 13 20 13 80 l0 80 -50 0 c-38 0 -50 -4 -50 -15z"/>
<path d="M380 2940 l0 -80 75 0 75 0 0 80 0 80 -75 0 -75 0 0 -80z"/>
<path d="M580 2940 l0 -80 75 0 75 0 0 80 0 80 -75 0 -75 0 0 -80z"/>
<path d="M780 2940 l0 -80 75 0 75 0 0 80 0 80 -75 0 -75 0 0 -80z"/>
<path d="M980 2940 l0 -80 75 0 75 0 0 80 0 80 -75 0 -75 0 0 -80z"/>
<path d="M1180 2940 l0 -80 75 0 75 0 0 80 0 80 -75 0 -75 0 0 -80z"/>
<path d="M1380 2940 l0 -80 75 0 75 0 0 80 0 80 -75 0 -75 0 0 -80z"/>
<path d="M1580 2940 l0 -80 75 0 75 0 0 80 0 80 -75 0 -75 0 0 -80z"/>
<path d="M1780 2940 l0 -80 75 0 75 0 0 80 0 80 -75 0 -75 0 0 -80z"/>
<path d="M1980 2940 l0 -80 75 0 75 0 0 80 0 80 -75 0 -75 0 0 -80z"/>
<path d="M2180 2940 l0 -80 75 0 75 0 0 80 0 80 -75 0 -75 0 0 -80z"/>
<path d="M2380 2940 l0 -80 75 0 75 0 0 80 0 80 -75 0 -75 0 0 -80z"/>
<path d="M2580 2940 l0 -80 75 0 75 0 0 80 0 80 -75 0 -75 0 0 -80z"/>
<path d="M2780 2940 l0 -80 75 0 75 0 0 80 0 80 -75 0 -75 0 0 -80z"/>
<path d="M2980 2940 l0 -80 75 0 75 0 0 80 0 80 -75 0 -75 0 0 -80z"/>
<path d="M3180 2940 l0 -80 75 0 75 0 0 80 0 80 -75 0 -75 0 0 -80z"/>
<path d="M3380 2940 l0 -80 75 0 75 0 0 80 0 80 -75 0 -75 0 0 -80z"/>
<path d="M3580 2940 l0 -80 75 0 75 0 0 80 0 80 -75 0 -75 0 0 -80z"/>
<path d="M3780 2940 l0 -80 75 0 75 0 0 80 0 80 -75 0 -75 0 0 -80z"/>
<path d="M3980 2940 l0 -80 75 0 75 0 0 80 0 80 -75 0 -75 0 0 -80z"/>
<path d="M4180 2940 l0 -80 75 0 75 0 0 80 0 80 -75 0 -75 0 0 -80z"/>
<path d="M4380 2940 l0 -80 75 0 75 0 0 80 0 80 -75 0 -75 0 0 -80z"/>
<path d="M4580 2940 l0 -80 75 0 75 0 0 80 0 80 -75 0 -75 0 0 -80z"/>
<path d="M4780 2940 l0 -80 75 0 75 0 0 80 0 80 -75 0 -75 0 0 -80z"/>
<path d="M4980 2940 l0 -80 75 0 75 0 0 80 0 80 -75 0 -75 0 0 -80z"/>
<path d="M5180 2940 l0 -80 75 0 75 0 0 80 0 80 -75 0 -75 0 0 -80z"/>
<path d="M5380 2940 l0 -80 75 0 75 0 0 80 0 80 -75 0 -75 0 0 -80z"/>
<path d="M5580 2940 l0 -80 75 0 75 0 0 80 0 80 -75 0 -75 0 0 -80z"/>
<path d="M5780 2940 l0 -80 75 0 75 0 0 80 0 80 -75 0 -75 0 0 -80z"/>
<path d="M5980 2940 l0 -80 75 0 75 0 0 80 0 80 -75 0 -75 0 0 -80z"/>
<path d="M6180 2940 l0 -80 75 0 75 0 0 80 0 80 -75 0 -75 0 0 -80z"/>
<path d="M6380 2940 l0 -80 75 0 75 0 0 80 0 80 -75 0 -75 0 0 -80z"/>
<path d="M6580 2940 l0 -80 75 0 75 0 0 80 0 80 -75 0 -75 0 0 -80z"/>
<path d="M6780 2940 l0 -80 75 0 75 0 0 80 0 80 -75 0 -75 0 0 -80z"/>
<path d="M6980 2940 l0 -80 75 0 75 0 0 80 0 80 -75 0 -75 0 0 -80z"/>
<path d="M7180 2940 l0 -80 75 0 75 0 0 80 0 80 -75 0 -75 0 0 -80z"/>
<path d="M7380 2940 l0 -80 75 0 75 0 0 80 0 80 -75 0 -75 0 0 -80z"/>
<path d="M7580 2940 l0 -80 75 0 75 0 0 80 0 80 -75 0 -75 0 0 -80z"/>
<path d="M7780 2940 l0 -80 75 0 75 0 0 80 0 80 -75 0 -75 0 0 -80z"/>
<path d="M7980 2940 l0 -80 75 0 75 0 0 80 0 80 -75 0 -75 0 0 -80z"/>
<path d="M8180 2940 l0 -80 75 0 75 0 0 80 0 80 -75 0 -75 0 0 -80z"/>
<path d="M8380 2940 l0 -80 75 0 75 0 0 80 0 80 -75 0 -75 0 0 -80z"/>
<path d="M8580 2940 l0 -80 75 0 75 0 0 80 0 80 -75 0 -75 0 0 -80z"/>
<path d="M8780 2940 l0 -80 75 0 76 0 -2 80 -2 80 -73 0 -74 0 0 -80z"/>
<path d="M8993 3013 c-9 -3 -13 -28 -13 -74 l0 -69 46 0 c43 0 46 2 61 38 8
20 20 40 25 43 5 3 8 19 6 35 -3 28 -5 29 -58 31 -30 1 -61 -1 -67 -4z"/>
<path d="M380 2767 c0 -29 6 -65 13 -80 11 -25 16 -27 75 -27 l62 0 0 80 0 80
-75 0 -75 0 0 -53z"/>
<path d="M580 2740 l0 -80 75 0 75 0 0 80 0 80 -75 0 -75 0 0 -80z"/>
<path d="M780 2740 l0 -80 75 0 75 0 0 80 0 80 -75 0 -75 0 0 -80z"/>
<path d="M980 2740 l0 -80 75 0 75 0 0 80 0 80 -75 0 -75 0 0 -80z"/>
<path d="M1180 2740 l0 -80 75 0 75 0 0 80 0 80 -75 0 -75 0 0 -80z"/>
<path d="M1380 2740 l0 -80 75 0 75 0 0 80 0 80 -75 0 -75 0 0 -80z"/>
<path d="M1580 2740 l0 -80 75 0 75 0 0 80 0 80 -75 0 -75 0 0 -80z"/>
<path d="M1780 2740 l0 -80 75 0 75 0 0 80 0 80 -75 0 -75 0 0 -80z"/>
<path d="M1980 2740 l0 -80 75 0 75 0 0 80 0 80 -75 0 -75 0 0 -80z"/>
<path d="M2180 2740 l0 -80 75 0 75 0 0 80 0 80 -75 0 -75 0 0 -80z"/>
<path d="M2380 2740 l0 -80 75 0 75 0 0 80 0 80 -75 0 -75 0 0 -80z"/>
<path d="M2580 2740 l0 -80 75 0 75 0 0 80 0 80 -75 0 -75 0 0 -80z"/>
<path d="M2780 2740 l0 -80 75 0 75 0 0 80 0 80 -75 0 -75 0 0 -80z"/>
<path d="M2980 2740 l0 -80 75 0 75 0 0 80 0 80 -75 0 -75 0 0 -80z"/>
<path d="M3180 2740 l0 -80 75 0 75 0 0 80 0 80 -75 0 -75 0 0 -80z"/>
<path d="M3380 2740 l0 -80 75 0 75 0 0 80 0 80 -75 0 -75 0 0 -80z"/>
<path d="M3580 2740 l0 -80 75 0 75 0 0 80 0 80 -75 0 -75 0 0 -80z"/>
<path d="M3780 2740 l0 -80 75 0 75 0 0 80 0 80 -75 0 -75 0 0 -80z"/>
<path d="M3980 2740 l0 -80 75 0 75 0 0 80 0 80 -75 0 -75 0 0 -80z"/>
<path d="M4180 2740 l0 -80 75 0 75 0 0 80 0 80 -75 0 -75 0 0 -80z"/>
<path d="M4380 2740 l0 -80 75 0 75 0 0 80 0 80 -75 0 -75 0 0 -80z"/>
<path d="M4580 2740 l0 -80 75 0 75 0 0 80 0 80 -75 0 -75 0 0 -80z"/>
<path d="M4780 2740 l0 -80 75 0 75 0 0 80 0 80 -75 0 -75 0 0 -80z"/>
<path d="M4980 2740 l0 -80 75 0 75 0 0 80 0 80 -75 0 -75 0 0 -80z"/>
<path d="M5180 2740 l0 -80 75 0 75 0 0 80 0 80 -75 0 -75 0 0 -80z"/>
<path d="M5380 2740 l0 -80 75 0 75 0 0 80 0 80 -75 0 -75 0 0 -80z"/>
<path d="M5580 2740 l0 -80 75 0 75 0 0 80 0 80 -75 0 -75 0 0 -80z"/>
<path d="M5780 2740 l0 -80 75 0 75 0 0 80 0 80 -75 0 -75 0 0 -80z"/>
<path d="M5980 2740 l0 -80 75 0 75 0 0 80 0 80 -75 0 -75 0 0 -80z"/>
<path d="M6180 2740 l0 -80 75 0 75 0 0 80 0 80 -75 0 -75 0 0 -80z"/>
<path d="M6380 2740 l0 -80 75 0 75 0 0 80 0 80 -75 0 -75 0 0 -80z"/>
<path d="M6580 2740 l0 -80 75 0 75 0 0 80 0 80 -75 0 -75 0 0 -80z"/>
<path d="M6780 2740 l0 -80 75 0 75 0 0 80 0 80 -75 0 -75 0 0 -80z"/>
<path d="M6980 2740 l0 -80 75 0 75 0 0 80 0 80 -75 0 -75 0 0 -80z"/>
<path d="M7180 2740 l0 -80 75 0 75 0 0 80 0 80 -75 0 -75 0 0 -80z"/>
<path d="M7380 2740 l0 -80 75 0 75 0 0 80 0 80 -75 0 -75 0 0 -80z"/>
<path d="M7580 2740 l0 -80 75 0 75 0 0 80 0 80 -75 0 -75 0 0 -80z"/>
<path d="M7780 2740 l0 -80 75 0 75 0 0 80 0 80 -75 0 -75 0 0 -80z"/>
<path d="M7980 2740 l0 -80 75 0 75 0 0 80 0 80 -75 0 -75 0 0 -80z"/>
<path d="M8180 2740 l0 -80 75 0 75 0 0 80 0 80 -75 0 -75 0 0 -80z"/>
<path d="M8380 2740 l0 -80 75 0 75 0 0 80 0 80 -75 0 -75 0 0 -80z"/>
<path d="M8580 2740 l0 -80 75 0 75 0 0 80 0 80 -75 0 -75 0 0 -80z"/>
<path d="M8780 2740 l0 -81 73 3 72 3 3 78 3 77 -76 0 -75 0 0 -80z"/>
<path d="M8980 2761 c0 -57 1 -59 29 -63 27 -4 30 -1 42 39 6 24 9 46 5 50 -3
3 -6 1 -6 -7 0 -10 -3 -10 -15 0 -10 9 -15 9 -15 1 0 -6 -7 -11 -15 -11 -11 0
-14 7 -9 25 4 15 2 25 -5 25 -7 0 -11 -22 -11 -59z"/>
<path d="M389 2613 c-12 -79 -6 -92 52 -109 24 -7 54 -15 67 -19 21 -7 22 -5
22 64 l0 71 -70 0 c-38 0 -71 -3 -71 -7z"/>
<path d="M580 2540 l0 -80 75 0 75 0 0 80 0 80 -75 0 -75 0 0 -80z"/>
<path d="M780 2540 l0 -80 75 0 75 0 0 80 0 80 -75 0 -75 0 0 -80z"/>
<path d="M980 2540 l0 -80 75 0 75 0 0 80 0 80 -75 0 -75 0 0 -80z"/>
<path d="M1180 2540 l0 -80 75 0 75 0 0 80 0 80 -75 0 -75 0 0 -80z"/>
<path d="M1380 2540 l0 -80 75 0 75 0 0 80 0 80 -75 0 -75 0 0 -80z"/>
<path d="M1580 2540 l0 -80 75 0 75 0 0 80 0 80 -75 0 -75 0 0 -80z"/>
<path d="M1780 2540 l0 -80 75 0 75 0 0 80 0 80 -75 0 -75 0 0 -80z"/>
<path d="M1980 2540 l0 -80 75 0 75 0 0 80 0 80 -75 0 -75 0 0 -80z"/>
<path d="M2180 2540 l0 -80 75 0 75 0 0 80 0 80 -75 0 -75 0 0 -80z"/>
<path d="M2380 2540 l0 -80 75 0 75 0 0 80 0 80 -75 0 -75 0 0 -80z"/>
<path d="M2580 2540 l0 -80 75 0 75 0 0 80 0 80 -75 0 -75 0 0 -80z"/>
<path d="M2780 2540 l0 -80 75 0 75 0 0 80 0 80 -75 0 -75 0 0 -80z"/>
<path d="M2980 2540 l0 -80 75 0 75 0 0 80 0 80 -75 0 -75 0 0 -80z"/>
<path d="M3180 2540 l0 -80 75 0 75 0 0 80 0 80 -75 0 -75 0 0 -80z"/>
<path d="M3380 2540 l0 -80 75 0 75 0 0 80 0 80 -75 0 -75 0 0 -80z"/>
<path d="M3580 2540 l0 -80 75 0 75 0 0 80 0 80 -75 0 -75 0 0 -80z"/>
<path d="M3780 2540 l0 -80 75 0 75 0 0 80 0 80 -75 0 -75 0 0 -80z"/>
<path d="M3980 2540 l0 -80 75 0 75 0 0 80 0 80 -75 0 -75 0 0 -80z"/>
<path d="M4180 2540 l0 -80 75 0 75 0 0 80 0 80 -75 0 -75 0 0 -80z"/>
<path d="M4380 2540 l0 -80 75 0 75 0 0 80 0 80 -75 0 -75 0 0 -80z"/>
<path d="M4580 2540 l0 -80 75 0 75 0 0 80 0 80 -75 0 -75 0 0 -80z"/>
<path d="M4780 2540 l0 -80 75 0 75 0 0 80 0 80 -75 0 -75 0 0 -80z"/>
<path d="M4980 2540 l0 -80 75 0 75 0 0 80 0 80 -75 0 -75 0 0 -80z"/>
<path d="M5180 2540 l0 -80 75 0 75 0 0 80 0 80 -75 0 -75 0 0 -80z"/>
<path d="M5380 2540 l0 -80 75 0 75 0 0 80 0 80 -75 0 -75 0 0 -80z"/>
<path d="M5580 2540 l0 -80 75 0 75 0 0 80 0 80 -75 0 -75 0 0 -80z"/>
<path d="M5780 2540 l0 -80 75 0 75 0 0 80 0 80 -75 0 -75 0 0 -80z"/>
<path d="M5980 2540 l0 -80 75 0 75 0 0 80 0 80 -75 0 -75 0 0 -80z"/>
<path d="M6180 2540 l0 -80 75 0 75 0 0 80 0 80 -75 0 -75 0 0 -80z"/>
<path d="M6380 2540 l0 -80 75 0 75 0 0 80 0 80 -75 0 -75 0 0 -80z"/>
<path d="M6580 2540 l0 -80 75 0 75 0 0 80 0 80 -75 0 -75 0 0 -80z"/>
<path d="M6780 2540 l0 -80 75 0 75 0 0 80 0 80 -75 0 -75 0 0 -80z"/>
<path d="M6980 2540 l0 -80 75 0 75 0 0 80 0 80 -75 0 -75 0 0 -80z"/>
<path d="M7180 2540 l0 -80 75 0 75 0 0 80 0 80 -75 0 -75 0 0 -80z"/>
<path d="M7380 2540 l0 -80 75 0 75 0 0 80 0 80 -75 0 -75 0 0 -80z"/>
<path d="M7580 2540 l0 -80 75 0 75 0 0 80 0 80 -75 0 -75 0 0 -80z"/>
<path d="M7780 2540 l0 -80 75 0 75 0 0 80 0 80 -75 0 -75 0 0 -80z"/>
<path d="M7980 2540 l0 -80 75 0 75 0 0 80 0 80 -75 0 -75 0 0 -80z"/>
<path d="M8180 2540 l0 -80 75 0 75 0 0 80 0 80 -75 0 -75 0 0 -80z"/>
<path d="M8380 2540 l0 -80 75 0 75 0 0 80 0 80 -75 0 -75 0 0 -80z"/>
<path d="M8580 2540 l0 -80 75 0 75 0 0 80 0 80 -75 0 -75 0 0 -80z"/>
<path d="M8780 2540 c0 -44 4 -80 8 -80 4 0 14 21 21 47 6 26 23 62 37 80 l25
33 -45 0 -46 0 0 -80z"/>
<path d="M458 2413 c7 -3 16 -2 19 1 4 3 -2 6 -13 5 -11 0 -14 -3 -6 -6z"/>
<path d="M620 2405 c0 -17 67 -65 92 -65 14 0 18 8 18 40 l0 40 -55 0 c-42 0
-55 -4 -55 -15z"/>
<path d="M780 2340 l0 -80 75 0 75 0 0 80 0 80 -75 0 -75 0 0 -80z"/>
<path d="M980 2340 l0 -80 75 0 75 0 0 80 0 80 -75 0 -75 0 0 -80z"/>
<path d="M1180 2340 l0 -80 75 0 75 0 0 80 0 80 -75 0 -75 0 0 -80z"/>
<path d="M1380 2340 l0 -80 75 0 75 0 0 80 0 80 -75 0 -75 0 0 -80z"/>
<path d="M1580 2340 l0 -80 75 0 75 0 0 80 0 80 -75 0 -75 0 0 -80z"/>
<path d="M1780 2340 l0 -80 75 0 75 0 0 80 0 80 -75 0 -75 0 0 -80z"/>
<path d="M1980 2340 l0 -80 75 0 75 0 0 80 0 80 -75 0 -75 0 0 -80z"/>
<path d="M2180 2340 l0 -80 75 0 75 0 0 80 0 80 -75 0 -75 0 0 -80z"/>
<path d="M2380 2340 l0 -80 75 0 75 0 0 80 0 80 -75 0 -75 0 0 -80z"/>
<path d="M2580 2340 l0 -80 75 0 75 0 0 80 0 80 -75 0 -75 0 0 -80z"/>
<path d="M2780 2340 l0 -80 75 0 75 0 0 80 0 80 -75 0 -75 0 0 -80z"/>
<path d="M2980 2340 l0 -80 75 0 75 0 0 80 0 80 -75 0 -75 0 0 -80z"/>
<path d="M3180 2340 l0 -80 75 0 75 0 0 80 0 80 -75 0 -75 0 0 -80z"/>
<path d="M3380 2340 l0 -80 75 0 75 0 0 80 0 80 -75 0 -75 0 0 -80z"/>
<path d="M3580 2340 l0 -80 75 0 75 0 0 80 0 80 -75 0 -75 0 0 -80z"/>
<path d="M3780 2340 l0 -80 75 0 75 0 0 80 0 80 -75 0 -75 0 0 -80z"/>
<path d="M3980 2340 l0 -80 75 0 75 0 0 80 0 80 -75 0 -75 0 0 -80z"/>
<path d="M4180 2340 l0 -80 75 0 75 0 0 80 0 80 -75 0 -75 0 0 -80z"/>
<path d="M4380 2340 l0 -80 75 0 75 0 0 80 0 80 -75 0 -75 0 0 -80z"/>
<path d="M4580 2340 l0 -80 75 0 75 0 0 80 0 80 -75 0 -75 0 0 -80z"/>
<path d="M4780 2340 l0 -80 75 0 75 0 0 80 0 80 -75 0 -75 0 0 -80z"/>
<path d="M4980 2340 l0 -80 75 0 75 0 0 80 0 80 -75 0 -75 0 0 -80z"/>
<path d="M5180 2340 l0 -80 75 0 75 0 0 80 0 80 -75 0 -75 0 0 -80z"/>
<path d="M5380 2340 l0 -80 75 0 75 0 0 80 0 80 -75 0 -75 0 0 -80z"/>
<path d="M5580 2340 l0 -80 75 0 75 0 0 80 0 80 -75 0 -75 0 0 -80z"/>
<path d="M5780 2340 l0 -80 75 0 75 0 0 80 0 80 -75 0 -75 0 0 -80z"/>
<path d="M5980 2340 l0 -80 75 0 75 0 0 80 0 80 -75 0 -75 0 0 -80z"/>
<path d="M6180 2340 l0 -80 75 0 75 0 0 80 0 80 -75 0 -75 0 0 -80z"/>
<path d="M6380 2340 l0 -80 75 0 75 0 0 80 0 80 -75 0 -75 0 0 -80z"/>
<path d="M6580 2340 l0 -80 75 0 75 0 0 80 0 80 -75 0 -75 0 0 -80z"/>
<path d="M6780 2340 l0 -80 75 0 75 0 0 80 0 80 -75 0 -75 0 0 -80z"/>
<path d="M6980 2340 l0 -80 75 0 75 0 0 80 0 80 -75 0 -75 0 0 -80z"/>
<path d="M7180 2340 l0 -80 75 0 75 0 0 80 0 80 -75 0 -75 0 0 -80z"/>
<path d="M7380 2340 l0 -80 75 0 75 0 0 80 0 80 -75 0 -75 0 0 -80z"/>
<path d="M7580 2340 l0 -80 75 0 75 0 0 80 0 80 -75 0 -75 0 0 -80z"/>
<path d="M7780 2340 l0 -80 75 0 75 0 0 80 0 80 -75 0 -75 0 0 -80z"/>
<path d="M7980 2340 l0 -80 75 0 75 0 0 80 0 80 -75 0 -75 0 0 -80z"/>
<path d="M8180 2340 l0 -80 75 0 75 0 0 80 0 80 -75 0 -75 0 0 -80z"/>
<path d="M8380 2340 l0 -80 75 0 75 0 0 80 0 80 -75 0 -75 0 0 -80z"/>
<path d="M8581 2338 l0 -83 29 61 c15 33 40 70 55 82 l28 22 -57 0 -56 0 1
-82z"/>
<path d="M886 2173 c21 -27 40 -50 41 -52 2 -2 3 19 3 47 l0 52 -41 0 -40 0
37 -47z"/>
<path d="M980 2140 l0 -80 75 0 75 0 0 80 0 80 -75 0 -75 0 0 -80z"/>
<path d="M1180 2140 l0 -80 75 0 75 0 0 80 0 80 -75 0 -75 0 0 -80z"/>
<path d="M1380 2140 l0 -80 75 0 75 0 0 80 0 80 -75 0 -75 0 0 -80z"/>
<path d="M1580 2140 l0 -80 75 0 75 0 0 80 0 80 -75 0 -75 0 0 -80z"/>
<path d="M1780 2140 l0 -80 75 0 75 0 0 80 0 80 -75 0 -75 0 0 -80z"/>
<path d="M1980 2140 l0 -80 75 0 75 0 0 80 0 80 -75 0 -75 0 0 -80z"/>
<path d="M2180 2140 l0 -80 75 0 75 0 0 80 0 80 -75 0 -75 0 0 -80z"/>
<path d="M2380 2140 l0 -80 75 0 75 0 0 80 0 80 -75 0 -75 0 0 -80z"/>
<path d="M2580 2140 l0 -80 75 0 75 0 0 80 0 80 -75 0 -75 0 0 -80z"/>
<path d="M2780 2140 l0 -80 75 0 75 0 0 80 0 80 -75 0 -75 0 0 -80z"/>
<path d="M2980 2140 l0 -80 75 0 75 0 0 80 0 80 -75 0 -75 0 0 -80z"/>
<path d="M3180 2140 l0 -80 75 0 75 0 0 80 0 80 -75 0 -75 0 0 -80z"/>
<path d="M3380 2140 l0 -80 75 0 75 0 0 80 0 80 -75 0 -75 0 0 -80z"/>
<path d="M3580 2140 l0 -80 75 0 75 0 0 80 0 80 -75 0 -75 0 0 -80z"/>
<path d="M3780 2140 l0 -80 75 0 75 0 0 80 0 80 -75 0 -75 0 0 -80z"/>
<path d="M3980 2140 l0 -80 75 0 75 0 0 80 0 80 -75 0 -75 0 0 -80z"/>
<path d="M4180 2140 l0 -80 75 0 75 0 0 80 0 80 -75 0 -75 0 0 -80z"/>
<path d="M4380 2140 l0 -80 75 0 75 0 0 80 0 80 -75 0 -75 0 0 -80z"/>
<path d="M4580 2140 l0 -80 75 0 75 0 0 80 0 80 -75 0 -75 0 0 -80z"/>
<path d="M4780 2140 l0 -80 75 0 75 0 0 80 0 80 -75 0 -75 0 0 -80z"/>
<path d="M4980 2140 l0 -80 75 0 75 0 0 80 0 80 -75 0 -75 0 0 -80z"/>
<path d="M5180 2140 l0 -80 75 0 75 0 0 80 0 80 -75 0 -75 0 0 -80z"/>
<path d="M5380 2140 l0 -80 75 0 75 0 0 80 0 80 -75 0 -75 0 0 -80z"/>
<path d="M5580 2140 l0 -80 75 0 75 0 0 80 0 80 -75 0 -75 0 0 -80z"/>
<path d="M5780 2140 l0 -80 75 0 75 0 0 80 0 80 -75 0 -75 0 0 -80z"/>
<path d="M5980 2140 l0 -80 75 0 75 0 0 80 0 80 -75 0 -75 0 0 -80z"/>
<path d="M6180 2140 l0 -80 75 0 75 0 0 80 0 80 -75 0 -75 0 0 -80z"/>
<path d="M6380 2140 l0 -80 75 0 75 0 0 80 0 80 -75 0 -75 0 0 -80z"/>
<path d="M6580 2140 l0 -80 75 0 75 0 0 80 0 80 -75 0 -75 0 0 -80z"/>
<path d="M6780 2140 l0 -80 75 0 75 0 0 80 0 80 -75 0 -75 0 0 -80z"/>
<path d="M6980 2140 l0 -80 75 0 75 0 0 80 0 80 -75 0 -75 0 0 -80z"/>
<path d="M7180 2140 l0 -80 75 0 75 0 0 80 0 80 -75 0 -75 0 0 -80z"/>
<path d="M7380 2140 l0 -80 75 0 75 0 0 80 0 80 -75 0 -75 0 0 -80z"/>
<path d="M7580 2140 l0 -80 75 0 75 0 0 80 0 80 -75 0 -75 0 0 -80z"/>
<path d="M7780 2140 l0 -80 75 0 75 0 0 80 0 80 -75 0 -75 0 0 -80z"/>
<path d="M7980 2140 l0 -80 75 0 75 0 0 80 0 80 -75 0 -75 0 0 -80z"/>
<path d="M8180 2140 l0 -80 75 0 75 0 0 80 0 80 -75 0 -75 0 0 -80z"/>
<path d="M8380 2140 l0 -80 43 0 c37 0 46 5 72 37 19 25 30 51 33 80 l3 43
-75 0 -76 0 0 -80z"/>
<path d="M980 1970 l0 -50 38 0 c20 0 54 -3 75 -6 l37 -7 0 57 0 56 -75 0 -75
0 0 -50z"/>
<path d="M1180 1966 c0 -63 4 -66 91 -66 l59 0 0 60 0 60 -75 0 -75 0 0 -54z"/>
<path d="M1380 1955 c0 -57 2 -65 19 -65 28 0 52 -11 45 -21 -3 -5 15 -9 40
-9 l46 0 0 80 0 80 -75 0 -75 0 0 -65z"/>
<path d="M1580 1940 l0 -80 75 0 75 0 0 80 0 80 -75 0 -75 0 0 -80z"/>
<path d="M1780 1940 l0 -80 75 0 75 0 0 80 0 80 -75 0 -75 0 0 -80z"/>
<path d="M1980 1940 l0 -80 75 0 75 0 0 80 0 80 -75 0 -75 0 0 -80z"/>
<path d="M2180 1940 l0 -80 75 0 75 0 0 80 0 80 -75 0 -75 0 0 -80z"/>
<path d="M2380 1940 l0 -80 75 0 75 0 0 80 0 80 -75 0 -75 0 0 -80z"/>
<path d="M2580 1940 l0 -80 75 0 75 0 0 80 0 80 -75 0 -75 0 0 -80z"/>
<path d="M2780 1940 l0 -80 75 0 75 0 0 80 0 80 -75 0 -75 0 0 -80z"/>
<path d="M2980 1940 l0 -80 75 0 75 0 0 80 0 80 -75 0 -75 0 0 -80z"/>
<path d="M3180 1940 l0 -80 75 0 75 0 0 80 0 80 -75 0 -75 0 0 -80z"/>
<path d="M3380 1940 l0 -80 75 0 75 0 0 80 0 80 -75 0 -75 0 0 -80z"/>
<path d="M3580 1940 l0 -80 75 0 75 0 0 80 0 80 -75 0 -75 0 0 -80z"/>
<path d="M3780 1940 l0 -80 75 0 75 0 0 80 0 80 -75 0 -75 0 0 -80z"/>
<path d="M3980 1940 l0 -80 75 0 75 0 0 80 0 80 -75 0 -75 0 0 -80z"/>
<path d="M4180 1940 l0 -80 75 0 75 0 0 80 0 80 -75 0 -75 0 0 -80z"/>
<path d="M4380 1940 l0 -80 75 0 75 0 0 80 0 80 -75 0 -75 0 0 -80z"/>
<path d="M4580 1940 l0 -80 75 0 75 0 0 80 0 80 -75 0 -75 0 0 -80z"/>
<path d="M4780 1940 l0 -80 75 0 75 0 0 80 0 80 -75 0 -75 0 0 -80z"/>
<path d="M4980 1940 l0 -80 75 0 75 0 0 80 0 80 -75 0 -75 0 0 -80z"/>
<path d="M5180 1940 l0 -80 75 0 75 0 0 80 0 80 -75 0 -75 0 0 -80z"/>
<path d="M5380 1940 l0 -80 75 0 75 0 0 80 0 80 -75 0 -75 0 0 -80z"/>
<path d="M5580 1940 l0 -80 75 0 75 0 0 80 0 80 -75 0 -75 0 0 -80z"/>
<path d="M5780 1940 l0 -80 75 0 75 0 0 80 0 80 -75 0 -75 0 0 -80z"/>
<path d="M5980 1940 l0 -80 75 0 75 0 0 80 0 80 -75 0 -75 0 0 -80z"/>
<path d="M6180 1940 l0 -80 75 0 75 0 0 80 0 80 -75 0 -75 0 0 -80z"/>
<path d="M6380 1940 l0 -80 75 0 75 0 0 80 0 80 -75 0 -75 0 0 -80z"/>
<path d="M6580 1940 l0 -80 75 0 75 0 0 80 0 80 -75 0 -75 0 0 -80z"/>
<path d="M6780 1940 l0 -80 75 0 75 0 0 80 0 80 -75 0 -75 0 0 -80z"/>
<path d="M6980 1940 l0 -80 75 0 75 0 0 80 0 80 -75 0 -75 0 0 -80z"/>
<path d="M7180 1940 l0 -80 75 0 75 0 0 80 0 80 -75 0 -75 0 0 -80z"/>
<path d="M7380 1940 l0 -80 75 0 75 0 0 80 0 80 -75 0 -75 0 0 -80z"/>
<path d="M7580 1940 l0 -80 75 0 75 0 0 80 0 80 -75 0 -75 0 0 -80z"/>
<path d="M7780 1940 l0 -80 75 0 75 0 0 80 0 80 -75 0 -75 0 0 -80z"/>
<path d="M7980 1940 l0 -80 75 0 75 0 0 80 0 80 -75 0 -75 0 0 -80z"/>
<path d="M8180 1940 l0 -80 70 0 c55 0 68 3 64 14 -3 8 -1 17 5 21 6 3 11 33
11 66 l0 59 -75 0 -75 0 0 -80z"/>
<path d="M8388 2013 c7 -3 16 -2 19 1 4 3 -2 6 -13 5 -11 0 -14 -3 -6 -6z"/>
<path d="M1461 1816 c2 -2 19 -11 37 -20 31 -16 32 -16 32 4 0 16 -7 20 -37
20 -20 0 -34 -2 -32 -4z"/>
<path d="M1580 1785 c0 -33 3 -36 70 -70 38 -19 72 -35 75 -35 3 0 5 32 5 70
l0 70 -75 0 -75 0 0 -35z"/>
<path d="M1780 1740 l0 -80 75 0 75 0 0 80 0 80 -75 0 -75 0 0 -80z"/>
<path d="M1980 1740 l0 -80 75 0 75 0 0 80 0 80 -75 0 -75 0 0 -80z"/>
<path d="M2180 1740 l0 -80 75 0 75 0 0 80 0 80 -75 0 -75 0 0 -80z"/>
<path d="M2380 1740 l0 -80 75 0 75 0 0 80 0 80 -75 0 -75 0 0 -80z"/>
<path d="M2580 1740 l0 -80 75 0 75 0 0 80 0 80 -75 0 -75 0 0 -80z"/>
<path d="M2780 1740 l0 -80 75 0 75 0 0 80 0 80 -75 0 -75 0 0 -80z"/>
<path d="M2980 1740 l0 -80 75 0 75 0 0 80 0 80 -75 0 -75 0 0 -80z"/>
<path d="M3180 1740 l0 -80 75 0 75 0 0 80 0 80 -75 0 -75 0 0 -80z"/>
<path d="M3380 1740 l0 -80 75 0 75 0 0 80 0 80 -75 0 -75 0 0 -80z"/>
<path d="M3580 1740 l0 -80 75 0 75 0 0 80 0 80 -75 0 -75 0 0 -80z"/>
<path d="M3780 1740 l0 -80 75 0 75 0 0 80 0 80 -75 0 -75 0 0 -80z"/>
<path d="M3980 1740 l0 -80 75 0 75 0 0 80 0 80 -75 0 -75 0 0 -80z"/>
<path d="M4180 1740 l0 -80 75 0 75 0 0 80 0 80 -75 0 -75 0 0 -80z"/>
<path d="M4380 1740 l0 -80 75 0 75 0 0 80 0 80 -75 0 -75 0 0 -80z"/>
<path d="M4580 1740 l0 -80 75 0 75 0 0 80 0 80 -75 0 -75 0 0 -80z"/>
<path d="M4780 1740 l0 -80 75 0 75 0 0 80 0 80 -75 0 -75 0 0 -80z"/>
<path d="M4980 1740 l0 -80 75 0 75 0 0 80 0 80 -75 0 -75 0 0 -80z"/>
<path d="M5180 1740 l0 -80 75 0 75 0 0 80 0 80 -75 0 -75 0 0 -80z"/>
<path d="M5380 1740 l0 -80 75 0 75 0 0 80 0 80 -75 0 -75 0 0 -80z"/>
<path d="M5580 1740 l0 -80 75 0 75 0 0 80 0 80 -75 0 -75 0 0 -80z"/>
<path d="M5780 1740 l0 -80 75 0 75 0 0 80 0 80 -75 0 -75 0 0 -80z"/>
<path d="M5980 1740 l0 -80 75 0 75 0 0 80 0 80 -75 0 -75 0 0 -80z"/>
<path d="M6180 1740 l0 -80 75 0 75 0 0 80 0 80 -75 0 -75 0 0 -80z"/>
<path d="M6380 1740 l0 -80 75 0 75 0 0 80 0 80 -75 0 -75 0 0 -80z"/>
<path d="M6580 1740 l0 -80 75 0 75 0 0 80 0 80 -75 0 -75 0 0 -80z"/>
<path d="M6780 1740 l0 -80 75 0 75 0 0 80 0 80 -75 0 -75 0 0 -80z"/>
<path d="M6980 1740 l0 -80 75 0 75 0 0 80 0 80 -75 0 -75 0 0 -80z"/>
<path d="M7180 1740 l0 -80 75 0 75 0 0 80 0 80 -75 0 -75 0 0 -80z"/>
<path d="M7380 1740 l0 -80 75 0 75 0 0 80 0 80 -75 0 -75 0 0 -80z"/>
<path d="M7580 1740 l0 -80 75 0 75 0 0 80 0 80 -75 0 -75 0 0 -80z"/>
<path d="M7780 1740 l0 -80 75 0 75 0 0 80 0 80 -75 0 -75 0 0 -80z"/>
<path d="M7980 1740 l0 -80 75 0 75 0 0 80 0 80 -75 0 -75 0 0 -80z"/>
<path d="M8180 1740 l0 -80 45 0 c25 0 45 3 46 8 0 4 2 25 4 47 1 22 4 40 5
40 1 0 3 15 5 33 l3 32 -54 0 -54 0 0 -80z"/>
<path d="M1841 1616 c2 -2 23 -13 47 -25 l42 -21 0 25 c0 23 -3 25 -47 25 -25
0 -44 -2 -42 -4z"/>
<path d="M1982 1580 c3 -39 6 -42 76 -81 l72 -40 0 81 0 80 -76 0 -75 0 3 -40z"/>
<path d="M2180 1540 l0 -80 75 0 75 0 0 80 0 80 -75 0 -75 0 0 -80z"/>
<path d="M2380 1540 l0 -80 75 0 75 0 0 80 0 80 -75 0 -75 0 0 -80z"/>
<path d="M2580 1540 l0 -80 75 0 75 0 0 80 0 80 -75 0 -75 0 0 -80z"/>
<path d="M2780 1561 l0 -58 38 -7 c20 -3 54 -6 75 -6 l37 0 0 65 0 65 -75 0
-75 0 0 -59z"/>
<path d="M2980 1551 l0 -69 58 -4 c31 -3 65 -9 75 -13 15 -6 17 1 17 74 l0 81
-75 0 -75 0 0 -69z"/>
<path d="M3180 1540 l0 -80 75 0 75 0 0 80 0 80 -75 0 -75 0 0 -80z"/>
<path d="M3380 1540 l0 -80 75 0 75 0 0 80 0 80 -75 0 -75 0 0 -80z"/>
<path d="M3580 1540 l0 -80 75 0 75 0 0 80 0 80 -75 0 -75 0 0 -80z"/>
<path d="M3780 1540 l0 -80 75 0 75 0 0 80 0 80 -75 0 -75 0 0 -80z"/>
<path d="M3980 1540 l0 -80 75 0 75 0 0 80 0 80 -75 0 -75 0 0 -80z"/>
<path d="M4180 1540 l0 -80 75 0 75 0 0 80 0 80 -75 0 -75 0 0 -80z"/>
<path d="M4380 1540 l0 -80 75 0 75 0 0 80 0 80 -75 0 -75 0 0 -80z"/>
<path d="M4580 1540 l0 -80 75 0 75 0 0 80 0 80 -75 0 -75 0 0 -80z"/>
<path d="M4780 1540 l0 -80 75 0 75 0 0 80 0 80 -75 0 -75 0 0 -80z"/>
<path d="M4980 1540 l0 -80 75 0 75 0 0 80 0 80 -75 0 -75 0 0 -80z"/>
<path d="M5180 1540 l0 -80 75 0 75 0 0 80 0 80 -75 0 -75 0 0 -80z"/>
<path d="M5380 1540 l0 -80 75 0 75 0 0 80 0 80 -75 0 -75 0 0 -80z"/>
<path d="M5580 1540 l0 -80 75 0 75 0 0 80 0 80 -75 0 -75 0 0 -80z"/>
<path d="M5780 1540 l0 -80 75 0 75 0 0 80 0 80 -75 0 -75 0 0 -80z"/>
<path d="M5980 1540 l0 -80 75 0 75 0 0 80 0 80 -75 0 -75 0 0 -80z"/>
<path d="M6180 1540 l0 -80 75 0 75 0 0 80 0 80 -75 0 -75 0 0 -80z"/>
<path d="M6380 1540 l0 -80 75 0 75 0 0 80 0 80 -75 0 -75 0 0 -80z"/>
<path d="M6580 1540 l0 -80 75 0 75 0 0 80 0 80 -75 0 -75 0 0 -80z"/>
<path d="M6780 1540 l0 -80 75 0 75 0 0 80 0 80 -75 0 -75 0 0 -80z"/>
<path d="M6980 1540 l0 -80 75 0 75 0 0 80 0 80 -75 0 -75 0 0 -80z"/>
<path d="M7180 1540 l0 -80 75 0 75 0 0 80 0 80 -75 0 -75 0 0 -80z"/>
<path d="M7380 1540 l0 -80 75 0 75 0 0 80 0 80 -75 0 -75 0 0 -80z"/>
<path d="M7580 1540 l0 -80 75 0 75 0 0 80 0 80 -75 0 -75 0 0 -80z"/>
<path d="M7780 1540 l0 -80 75 0 75 0 0 80 0 80 -75 0 -75 0 0 -80z"/>
<path d="M7980 1540 l0 -80 75 0 75 0 0 80 0 80 -75 0 -75 0 0 -80z"/>
<path d="M8180 1540 l0 -80 55 0 c59 0 61 1 44 32 -6 11 -12 36 -14 57 -5 59
-13 71 -51 71 l-34 0 0 -80z"/>
<path d="M2582 1415 c3 -3 38 -9 77 -14 56 -6 71 -4 71 6 0 10 -20 13 -77 13
-42 0 -74 -2 -71 -5z"/>
<path d="M3180 1401 c0 -23 112 -141 134 -141 13 0 16 13 16 80 l0 80 -75 0
c-67 0 -75 -2 -75 -19z"/>
<path d="M3380 1340 l0 -80 75 0 75 0 0 80 0 80 -75 0 -75 0 0 -80z"/>
<path d="M3580 1340 l0 -80 75 0 75 0 0 80 0 80 -75 0 -75 0 0 -80z"/>
<path d="M3780 1340 l0 -80 75 0 75 0 0 80 0 80 -75 0 -75 0 0 -80z"/>
<path d="M3980 1340 l0 -80 75 0 75 0 0 80 0 80 -75 0 -75 0 0 -80z"/>
<path d="M4180 1340 l0 -80 75 0 75 0 0 80 0 80 -75 0 -75 0 0 -80z"/>
<path d="M4380 1340 l0 -80 75 0 75 0 0 80 0 80 -75 0 -75 0 0 -80z"/>
<path d="M4580 1340 l0 -80 75 0 75 0 0 80 0 80 -75 0 -75 0 0 -80z"/>
<path d="M4780 1340 l0 -80 75 0 75 0 0 80 0 80 -75 0 -75 0 0 -80z"/>
<path d="M4980 1340 l0 -80 75 0 75 0 0 80 0 80 -75 0 -75 0 0 -80z"/>
<path d="M5180 1340 l0 -80 75 0 75 0 0 80 0 80 -75 0 -75 0 0 -80z"/>
<path d="M5380 1340 l0 -80 75 0 75 0 0 80 0 80 -75 0 -75 0 0 -80z"/>
<path d="M5580 1340 l0 -80 75 0 75 0 0 80 0 80 -75 0 -75 0 0 -80z"/>
<path d="M5780 1340 l0 -80 75 0 75 0 0 80 0 80 -75 0 -75 0 0 -80z"/>
<path d="M5980 1340 l0 -80 75 0 75 0 0 80 0 80 -75 0 -75 0 0 -80z"/>
<path d="M6180 1340 l0 -80 75 0 75 0 0 80 0 80 -75 0 -75 0 0 -80z"/>
<path d="M6380 1340 l0 -80 75 0 75 0 0 80 0 80 -75 0 -75 0 0 -80z"/>
<path d="M6580 1340 l0 -80 75 0 75 0 0 80 0 80 -75 0 -75 0 0 -80z"/>
<path d="M6780 1340 l0 -80 65 0 c62 0 65 1 65 24 0 14 5 28 10 31 6 3 10 28
10 56 l0 49 -75 0 -75 0 0 -80z"/>
<path d="M6980 1340 l0 -80 75 0 75 0 0 80 0 80 -75 0 -75 0 0 -80z"/>
<path d="M7180 1353 l0 -68 75 0 75 0 0 68 0 67 -75 0 -75 0 0 -67z"/>
<path d="M7380 1340 l0 -80 75 0 75 0 0 80 0 80 -75 0 -75 0 0 -80z"/>
<path d="M7580 1340 l0 -80 55 0 c76 0 95 20 95 100 l0 60 -75 0 -75 0 0 -80z"/>
<path d="M7780 1357 l0 -62 49 -18 c27 -9 60 -17 75 -17 26 0 26 0 26 80 l0
80 -75 0 -75 0 0 -63z"/>
<path d="M7980 1340 l0 -80 75 0 75 0 0 80 0 80 -75 0 -75 0 0 -80z"/>
<path d="M8180 1340 l0 -80 75 0 75 0 0 55 c0 30 -5 66 -12 80 -10 23 -16 25
-75 25 l-63 0 0 -80z"/>
<path d="M3380 1209 c0 -6 9 -22 20 -36 11 -14 20 -32 20 -40 0 -8 8 -28 17
-44 14 -24 24 -29 55 -29 l38 0 0 80 0 80 -75 0 c-48 0 -75 -4 -75 -11z"/>
<path d="M3580 1140 l0 -80 75 0 75 0 0 80 0 80 -75 0 -75 0 0 -80z"/>
<path d="M3780 1140 l0 -80 75 0 75 0 0 80 0 80 -75 0 -75 0 0 -80z"/>
<path d="M3980 1140 l0 -80 75 0 75 0 0 80 0 80 -75 0 -75 0 0 -80z"/>
<path d="M4180 1140 l0 -80 75 0 75 0 0 80 0 80 -75 0 -75 0 0 -80z"/>
<path d="M4380 1140 l0 -80 75 0 75 0 0 80 0 80 -75 0 -75 0 0 -80z"/>
<path d="M4580 1140 l0 -80 75 0 75 0 0 80 0 80 -75 0 -75 0 0 -80z"/>
<path d="M4780 1140 l0 -80 75 0 75 0 0 80 0 80 -75 0 -75 0 0 -80z"/>
<path d="M4980 1140 l0 -80 75 0 75 0 0 80 0 80 -75 0 -75 0 0 -80z"/>
<path d="M5180 1140 l0 -80 75 0 75 0 0 80 0 80 -75 0 -75 0 0 -80z"/>
<path d="M5380 1140 l0 -80 75 0 75 0 0 80 0 80 -75 0 -75 0 0 -80z"/>
<path d="M5580 1140 l0 -80 75 0 75 0 0 80 0 80 -75 0 -75 0 0 -80z"/>
<path d="M5780 1140 l0 -80 75 0 75 0 0 80 0 80 -75 0 -75 0 0 -80z"/>
<path d="M5980 1140 l0 -80 75 0 75 0 0 80 0 80 -75 0 -75 0 0 -80z"/>
<path d="M6180 1140 l0 -80 75 0 75 0 0 80 0 80 -75 0 -75 0 0 -80z"/>
<path d="M6380 1140 l0 -80 75 0 75 0 0 80 0 80 -75 0 -75 0 0 -80z"/>
<path d="M6580 1174 l0 -45 35 27 c19 14 35 33 35 41 0 10 6 12 19 8 11 -3 22
-1 26 5 4 6 -15 10 -54 10 l-61 0 0 -46z"/>
<path d="M7507 1193 c9 -16 18 -30 20 -32 2 -2 3 10 3 27 0 25 -4 32 -20 32
-20 0 -20 -1 -3 -27z"/>
<path d="M7580 1201 c0 -22 31 -19 51 5 9 11 6 14 -20 14 -24 0 -31 -4 -31
-19z"/>
<path d="M7921 1204 c0 -11 3 -14 6 -6 3 7 2 16 -1 19 -3 4 -6 -2 -5 -13z"/>
<path d="M7980 1184 c0 -41 19 -64 52 -64 14 0 35 -13 50 -30 41 -47 48 -39
48 50 l0 80 -75 0 -75 0 0 -36z"/>
<path d="M8180 1140 l0 -80 75 0 75 0 0 80 0 80 -75 0 -75 0 0 -80z"/>
<path d="M8380 1140 l0 -80 75 0 c55 0 75 3 75 13 0 21 -113 147 -132 147 -16
0 -18 -10 -18 -80z"/>
<path d="M6620 1095 c-7 -18 -15 -25 -25 -21 -8 3 -15 1 -15 -4 0 -6 18 -10
40 -10 32 0 40 4 40 19 0 10 -7 24 -15 31 -12 10 -16 8 -25 -15z"/>
<path d="M3450 1009 c0 -24 56 -109 72 -109 4 0 8 27 8 60 l0 60 -40 0 c-22 0
-40 -5 -40 -11z"/>
<path d="M3580 940 l0 -80 75 0 75 0 0 80 0 80 -75 0 -75 0 0 -80z"/>
<path d="M3780 940 c0 -78 1 -80 24 -80 16 0 26 7 30 23 8 34 44 67 71 67 22
0 25 4 25 35 l0 35 -75 0 -75 0 0 -80z"/>
<path d="M3980 985 c0 -35 0 -35 45 -36 25 -1 59 -2 75 -3 28 -1 30 1 30 37
l0 37 -75 0 -75 0 0 -35z"/>
<path d="M4180 950 c0 -82 8 -90 94 -90 l56 0 0 80 0 80 -75 0 -75 0 0 -70z"/>
<path d="M4380 940 l0 -80 75 0 75 0 0 80 0 80 -75 0 -75 0 0 -80z"/>
<path d="M4580 940 l0 -80 75 0 75 0 0 80 0 80 -75 0 -75 0 0 -80z"/>
<path d="M4780 940 l0 -80 75 0 75 0 0 80 0 80 -75 0 -75 0 0 -80z"/>
<path d="M4980 940 l0 -80 75 0 75 0 0 80 0 80 -75 0 -75 0 0 -80z"/>
<path d="M5180 940 l0 -80 75 0 75 0 0 80 0 80 -75 0 -75 0 0 -80z"/>
<path d="M5380 940 l0 -80 65 0 c67 0 83 13 51 39 -8 7 -13 20 -12 29 2 9 6
15 9 12 10 -8 36 33 37 58 0 21 -4 22 -75 22 l-75 0 0 -80z"/>
<path d="M5580 972 c0 -27 3 -51 6 -55 4 -3 28 5 55 18 27 14 57 25 69 25 16
0 20 7 20 30 l0 30 -75 0 -75 0 0 -48z"/>
<path d="M5780 1005 c0 -12 13 -15 59 -15 33 0 66 -3 75 -6 12 -4 16 0 16 15
0 19 -5 21 -75 21 -60 0 -75 -3 -75 -15z"/>
<path d="M5980 991 c0 -31 14 -41 60 -41 29 0 55 21 42 34 -4 4 2 14 12 22 18
13 13 14 -47 14 l-67 0 0 -29z"/>
<path d="M6208 990 c18 -16 38 -30 46 -30 7 0 19 -7 26 -15 10 -12 10 -18 0
-30 -10 -12 -10 -15 3 -15 8 0 22 -3 31 -6 14 -5 16 4 16 60 l0 66 -76 0 -77
0 31 -30z"/>
<path d="M6380 945 c0 -61 3 -73 15 -69 8 3 17 14 20 25 7 21 35 26 35 7 0 -7
6 -4 12 6 10 18 11 18 28 -4 26 -34 40 -16 40 51 l0 59 -75 0 -75 0 0 -75z"/>
<path d="M6580 986 c0 -31 4 -35 33 -41 17 -4 42 -17 55 -28 12 -11 31 -21 43
-22 17 -1 20 3 17 28 -2 18 -9 31 -18 32 -56 9 -103 28 -107 46 -9 31 -23 22
-23 -15z"/>
<path d="M8117 948 c-3 -40 -1 -77 4 -82 5 -6 9 23 9 72 0 45 -2 82 -4 82 -2
0 -6 -33 -9 -72z"/>
<path d="M8180 940 l0 -80 75 0 75 0 0 80 0 80 -75 0 -75 0 0 -80z"/>
<path d="M8380 940 l0 -80 75 0 75 0 0 80 0 80 -75 0 -75 0 0 -80z"/>
<path d="M8580 903 c0 -41 1 -43 30 -43 37 0 37 6 0 50 l-29 35 -1 -42z"/>
<path d="M3666 810 c12 -5 25 -13 29 -19 11 -18 35 -12 35 9 0 17 -6 20 -42
19 -35 0 -39 -2 -22 -9z"/>
<path d="M3780 803 c0 -10 4 -14 8 -8 4 6 11 13 16 18 5 4 2 7 -7 7 -10 0 -17
-8 -17 -17z"/>
<path d="M4292 758 c17 -35 33 -65 35 -67 1 -2 3 26 3 62 l0 67 -34 0 -34 0
30 -62z"/>
<path d="M4380 740 l0 -80 75 0 75 0 0 80 0 80 -75 0 -75 0 0 -80z"/>
<path d="M4580 740 l0 -80 75 0 75 0 0 80 0 80 -75 0 -75 0 0 -80z"/>
<path d="M4780 740 l0 -80 75 0 75 0 0 80 0 80 -75 0 -75 0 0 -80z"/>
<path d="M4980 740 l0 -80 75 0 75 0 0 80 0 80 -75 0 -75 0 0 -80z"/>
<path d="M5180 745 c0 -41 3 -75 8 -75 4 0 18 7 30 16 12 8 22 11 22 4 0 -10
60 -7 80 5 5 3 10 33 10 66 l0 59 -75 0 -75 0 0 -75z"/>
<path d="M5380 774 l0 -45 28 19 c15 11 38 32 51 46 l24 26 -51 0 -52 0 0 -46z"/>
<path d="M8115 810 c3 -5 8 -10 11 -10 2 0 4 5 4 10 0 6 -5 10 -11 10 -5 0 -7
-4 -4 -10z"/>
<path d="M8193 793 c-36 -77 0 -133 85 -133 l52 0 0 80 0 80 -62 0 c-59 0 -64
-2 -75 -27z"/>
<path d="M8380 740 l0 -80 75 0 75 0 0 80 0 80 -75 0 -75 0 0 -80z"/>
<path d="M8580 740 l0 -80 75 0 c75 0 75 0 75 27 0 15 -14 51 -32 80 -31 51
-34 53 -75 53 l-43 0 0 -80z"/>
<path d="M4380 597 c0 -13 10 -33 23 -44 32 -30 57 -65 57 -80 0 -8 13 -13 35
-13 l35 0 0 80 0 80 -75 0 c-72 0 -75 -1 -75 -23z"/>
<path d="M4580 540 l0 -80 75 0 75 0 0 80 0 80 -75 0 -75 0 0 -80z"/>
<path d="M4780 540 l0 -80 75 0 75 0 0 80 0 80 -75 0 -75 0 0 -80z"/>
<path d="M4980 538 c0 -71 2 -79 14 -63 7 10 20 16 28 12 11 -4 22 5 34 28 10
18 28 38 41 44 15 7 23 19 23 36 0 24 -2 25 -70 25 l-70 0 0 -82z"/>
<path d="M8265 600 c19 -21 37 -18 28 5 -3 8 -14 15 -26 15 -19 0 -19 -1 -2
-20z"/>
<path d="M8316 605 c4 -8 8 -15 10 -15 2 0 4 7 4 15 0 8 -4 15 -10 15 -5 0 -7
-7 -4 -15z"/>
<path d="M8380 567 c0 -29 6 -65 13 -80 11 -25 16 -27 75 -27 l62 0 0 80 0 80
-75 0 -75 0 0 -53z"/>
<path d="M8580 540 l0 -80 75 0 75 0 0 80 0 80 -75 0 -75 0 0 -80z"/>
<path d="M8322 550 c0 -14 2 -19 5 -12 2 6 2 18 0 25 -3 6 -5 1 -5 -13z"/>
<path d="M4580 340 l0 -80 75 0 75 0 0 80 0 80 -75 0 -75 0 0 -80z"/>
<path d="M4780 340 l0 -80 75 0 75 0 0 80 0 80 -75 0 -75 0 0 -80z"/>
<path d="M4980 388 c0 -25 3 -29 10 -18 13 20 13 50 0 50 -5 0 -10 -15 -10
-32z"/>
<path d="M8430 412 c0 -16 13 -21 31 -12 11 7 27 7 43 0 21 -7 26 -6 26 5 0
11 -13 15 -50 15 -27 0 -50 -4 -50 -8z"/>
<path d="M8580 378 c0 -24 3 -60 6 -81 l7 -38 46 4 c77 6 91 21 91 94 l0 63
-75 0 -75 0 0 -42z"/>
<path d="M4609 193 c7 -26 12 -28 64 -31 l57 -3 0 31 0 30 -64 0 -64 0 7 -27z"/>
<path d="M4780 190 l0 -30 75 0 75 0 0 30 0 30 -75 0 -75 0 0 -30z"/>
<path d="M4700 116 c0 -2 7 -6 15 -10 8 -3 15 -1 15 4 0 6 -7 10 -15 10 -8 0
-15 -2 -15 -4z"/>
<path d="M4780 102 c0 -25 34 -41 98 -46 l52 -5 0 35 0 34 -75 0 c-66 0 -75
-2 -75 -18z"/>
<path d="M4980 71 c0 -46 18 -81 28 -53 2 7 10 12 18 12 15 0 19 16 5 24 -4 3
-11 19 -14 36 -4 18 -13 30 -22 30 -11 0 -15 -12 -15 -49z"/>
</g>
</svg>
